<svg xmlns="http://www.w3.org/2000/svg" xmlns:xlink="http://www.w3.org/1999/xlink" width="500" zoomAndPan="magnify" viewBox="0 0 375 374.999991" height="500" preserveAspectRatio="xMidYMid meet" version="1.0"><defs><clipPath id="654d89525c"><path d="M 203 60 L 314.492188 60 L 314.492188 312 L 203 312 Z M 203 60 " clip-rule="nonzero"/></clipPath><clipPath id="e8315fc92e"><path d="M 165 41.554688 L 262 41.554688 L 262 77 L 165 77 Z M 165 41.554688 " clip-rule="nonzero"/></clipPath><clipPath id="cd6a4f666b"><path d="M 60.242188 199 L 200 199 L 200 337.804688 L 60.242188 337.804688 Z M 60.242188 199 " clip-rule="nonzero"/></clipPath></defs><rect x="-37.5" width="450" fill="#ffffff" y="-37.499999" height="449.999989" fill-opacity="1"/><rect x="-37.5" width="450" fill="#ffffff" y="-37.499999" height="449.999989" fill-opacity="1"/><g clip-path="url(#654d89525c)"><path fill="#100f0d" d="M 302.179688 60.535156 L 273.816406 60.535156 L 273.816406 76.320312 L 298.339844 76.320312 L 298.339844 295.746094 L 210.863281 295.746094 C 208.992188 301.285156 206.582031 306.5625 203.679688 311.527344 L 302.179688 311.527344 C 308.746094 311.527344 314.105469 306.183594 314.105469 299.59375 L 314.105469 72.453125 C 314.105469 65.882812 308.746094 60.535156 302.179688 60.535156 " fill-opacity="1" fill-rule="nonzero"/></g><path fill="#100f0d" d="M 128.417969 76.320312 L 152.9375 76.320312 L 152.9375 60.535156 L 124.5625 60.535156 C 117.984375 60.535156 112.652344 65.882812 112.652344 72.453125 L 112.652344 184.796875 C 117.753906 183.734375 123.011719 183.125 128.417969 183.039062 L 128.417969 76.320312 " fill-opacity="1" fill-rule="nonzero"/><path fill="#100f0d" d="M 245.902344 163.074219 L 148.558594 163.074219 L 148.558594 175.355469 L 245.902344 175.355469 L 245.902344 163.074219 " fill-opacity="1" fill-rule="nonzero"/><path fill="#100f0d" d="M 245.902344 129.4375 L 148.558594 129.4375 L 148.558594 141.726562 L 245.902344 141.726562 L 245.902344 129.4375 " fill-opacity="1" fill-rule="nonzero"/><path fill="#100f0d" d="M 245.902344 95.800781 L 148.558594 95.800781 L 148.558594 108.089844 L 245.902344 108.089844 L 245.902344 95.800781 " fill-opacity="1" fill-rule="nonzero"/><path fill="#100f0d" d="M 245.902344 276.273438 L 245.902344 263.976562 L 215.175781 263.976562 C 215.261719 265.472656 215.296875 266.984375 215.296875 268.511719 C 215.296875 271.117188 215.175781 273.710938 214.9375 276.273438 L 245.902344 276.273438 " fill-opacity="1" fill-rule="nonzero"/><path fill="#100f0d" d="M 276.496094 261.769531 C 276.164062 261.4375 275.617188 261.4375 275.28125 261.769531 L 266.410156 270.65625 L 262.507812 266.753906 C 262.175781 266.421875 261.628906 266.421875 261.300781 266.753906 L 259.257812 268.796875 C 258.929688 269.128906 258.929688 269.675781 259.257812 270.015625 L 265.804688 276.574219 C 266.140625 276.914062 266.679688 276.914062 267.019531 276.574219 L 278.535156 265.03125 C 278.875 264.699219 278.875 264.152344 278.535156 263.8125 L 276.496094 261.769531 " fill-opacity="1" fill-rule="nonzero"/><path fill="#100f0d" d="M 160.335938 238.933594 C 158.988281 237.589844 156.820312 237.589844 155.472656 238.933594 L 120.042969 274.4375 L 104.46875 258.851562 C 103.121094 257.511719 100.941406 257.511719 99.601562 258.851562 L 91.472656 267 C 90.132812 268.339844 90.132812 270.523438 91.472656 271.867188 L 117.609375 298.089844 C 118.957031 299.433594 121.136719 299.433594 122.472656 298.089844 L 168.488281 251.976562 C 169.828125 250.636719 169.828125 248.453125 168.488281 247.109375 L 160.335938 238.933594 " fill-opacity="1" fill-rule="nonzero"/><path fill="#100f0d" d="M 245.902344 196.71875 L 176.234375 196.71875 C 181.65625 200.226562 186.667969 204.347656 191.15625 208.992188 L 245.902344 208.992188 L 245.902344 196.71875 " fill-opacity="1" fill-rule="nonzero"/><path fill="#100f0d" d="M 278.535156 196.410156 L 276.496094 194.363281 C 276.164062 194.03125 275.617188 194.03125 275.28125 194.363281 L 266.410156 203.25 L 262.507812 199.355469 C 262.175781 199.015625 261.628906 199.015625 261.300781 199.355469 L 259.257812 201.390625 C 258.929688 201.730469 258.929688 202.273438 259.257812 202.609375 L 265.804688 209.175781 C 266.140625 209.507812 266.679688 209.507812 267.019531 209.175781 L 278.535156 197.636719 C 278.875 197.296875 278.875 196.746094 278.535156 196.410156 " fill-opacity="1" fill-rule="nonzero"/><path fill="#100f0d" d="M 245.902344 230.910156 L 206.582031 230.910156 C 208.523438 234.851562 210.164062 238.941406 211.472656 243.191406 L 245.902344 243.191406 L 245.902344 230.910156 " fill-opacity="1" fill-rule="nonzero"/><path fill="#100f0d" d="M 278.535156 230.609375 L 276.496094 228.5625 C 276.164062 228.222656 275.617188 228.222656 275.28125 228.5625 L 266.410156 237.453125 L 262.507812 233.546875 C 262.175781 233.214844 261.628906 233.214844 261.300781 233.546875 L 259.257812 235.59375 C 258.929688 235.921875 258.929688 236.472656 259.257812 236.8125 L 265.804688 243.367188 C 266.140625 243.707031 266.679688 243.707031 267.019531 243.375 L 278.535156 231.828125 C 278.875 231.496094 278.875 230.949219 278.535156 230.609375 " fill-opacity="1" fill-rule="nonzero"/><path fill="#100f0d" d="M 278.535156 162.710938 L 276.496094 160.664062 C 276.164062 160.324219 275.617188 160.324219 275.28125 160.664062 L 266.410156 169.554688 L 262.507812 165.648438 C 262.175781 165.308594 261.628906 165.308594 261.300781 165.648438 L 259.257812 167.6875 C 258.929688 168.027344 258.929688 168.574219 259.257812 168.914062 L 265.804688 175.46875 C 266.140625 175.808594 266.679688 175.808594 267.019531 175.46875 L 278.535156 163.929688 C 278.875 163.589844 278.875 163.050781 278.535156 162.710938 " fill-opacity="1" fill-rule="nonzero"/><path fill="#100f0d" d="M 278.535156 129.011719 L 276.496094 126.96875 C 276.164062 126.628906 275.617188 126.628906 275.28125 126.96875 L 266.410156 135.847656 L 262.507812 131.949219 C 262.175781 131.613281 261.628906 131.613281 261.300781 131.949219 L 259.257812 133.988281 C 258.929688 134.328125 258.929688 134.867188 259.257812 135.207031 L 265.804688 141.773438 C 266.140625 142.105469 266.679688 142.105469 267.019531 141.773438 L 278.535156 130.230469 C 278.875 129.890625 278.875 129.34375 278.535156 129.011719 " fill-opacity="1" fill-rule="nonzero"/><path fill="#100f0d" d="M 259.257812 100.289062 C 258.929688 100.621094 258.929688 101.167969 259.257812 101.507812 L 265.804688 108.074219 C 266.140625 108.40625 266.679688 108.40625 267.019531 108.074219 L 278.535156 96.53125 C 278.875 96.191406 278.875 95.644531 278.535156 95.304688 L 276.496094 93.261719 C 276.164062 92.929688 275.617188 92.929688 275.28125 93.261719 L 266.410156 102.148438 L 262.507812 98.246094 C 262.175781 97.914062 261.628906 97.914062 261.300781 98.246094 L 259.257812 100.289062 " fill-opacity="1" fill-rule="nonzero"/><g clip-path="url(#e8315fc92e)"><path fill="#100f0d" d="M 231.765625 67.886719 C 226.933594 67.886719 223.011719 63.953125 223.011719 59.105469 C 223.011719 54.261719 226.933594 50.335938 231.765625 50.335938 C 236.601562 50.335938 240.527344 54.261719 240.527344 59.105469 C 240.527344 63.953125 236.601562 67.886719 231.765625 67.886719 Z M 194.980469 67.886719 C 190.148438 67.886719 186.226562 63.953125 186.226562 59.105469 C 186.226562 54.261719 190.148438 50.335938 194.980469 50.335938 C 199.816406 50.335938 203.742188 54.261719 203.742188 59.105469 C 203.742188 63.953125 199.816406 67.886719 194.980469 67.886719 Z M 261.546875 49.878906 C 261.546875 45.273438 257.835938 41.554688 253.246094 41.554688 L 173.496094 41.554688 C 168.921875 41.554688 165.210938 45.273438 165.210938 49.878906 L 165.210938 76.660156 L 261.546875 76.660156 L 261.546875 49.878906 " fill-opacity="1" fill-rule="nonzero"/></g><g clip-path="url(#cd6a4f666b)"><path fill="#100f0d" d="M 129.980469 325.207031 C 98.785156 325.207031 73.402344 299.773438 73.402344 268.511719 C 73.402344 237.25 98.785156 211.816406 129.980469 211.816406 C 161.175781 211.816406 186.558594 237.25 186.558594 268.511719 C 186.558594 299.773438 161.175781 325.207031 129.980469 325.207031 Z M 129.980469 199.214844 C 91.855469 199.214844 60.832031 230.300781 60.832031 268.511719 C 60.832031 306.722656 91.855469 337.804688 129.980469 337.804688 C 168.113281 337.804688 199.132812 306.722656 199.132812 268.511719 C 199.132812 230.300781 168.113281 199.214844 129.980469 199.214844 " fill-opacity="1" fill-rule="nonzero"/></g></svg>