<svg xmlns="http://www.w3.org/2000/svg" xmlns:xlink="http://www.w3.org/1999/xlink" width="500" zoomAndPan="magnify" viewBox="0 0 375 374.999991" height="500" preserveAspectRatio="xMidYMid meet" version="1.0"><defs><clipPath id="55d2c30ad5"><path d="M 185 78.574219 L 190 78.574219 L 190 103 L 185 103 Z M 185 78.574219 " clip-rule="nonzero"/></clipPath><clipPath id="8893f76bfe"><path d="M 74.769531 108 L 300.519531 108 L 300.519531 296.074219 L 74.769531 296.074219 Z M 74.769531 108 " clip-rule="nonzero"/></clipPath></defs><rect x="-37.5" width="450" fill="#ffffff" y="-37.499999" height="449.999989" fill-opacity="1"/><rect x="-37.5" width="450" fill="#ffffff" y="-37.499999" height="449.999989" fill-opacity="1"/><g clip-path="url(#55d2c30ad5)"><path fill="#b60000" d="M 187.5 102.222656 C 188.882812 102.222656 190 101.105469 190 99.726562 L 190 81.082031 C 190 79.699219 188.882812 78.582031 187.5 78.582031 C 186.117188 78.582031 185 79.699219 185 81.082031 L 185 99.726562 C 185 101.105469 186.117188 102.222656 187.5 102.222656 " fill-opacity="1" fill-rule="nonzero"/></g><path fill="#b60000" d="M 158.71875 107.03125 C 159.207031 107.714844 159.972656 108.082031 160.757812 108.082031 C 161.261719 108.082031 161.765625 107.929688 162.207031 107.613281 C 163.332031 106.816406 163.59375 105.25 162.792969 104.125 L 151.96875 88.949219 C 151.164062 87.824219 149.609375 87.5625 148.480469 88.367188 C 147.355469 89.167969 147.09375 90.730469 147.894531 91.855469 L 158.71875 107.03125 " fill-opacity="1" fill-rule="nonzero"/><path fill="#b60000" d="M 127.316406 120.5625 L 143.972656 128.9375 C 144.335938 129.121094 144.714844 129.207031 145.09375 129.207031 C 146.007812 129.207031 146.890625 128.699219 147.332031 127.828125 C 147.953125 126.59375 147.453125 125.089844 146.21875 124.46875 L 129.566406 116.09375 C 128.324219 115.472656 126.828125 115.972656 126.207031 117.203125 C 125.585938 118.4375 126.085938 119.941406 127.316406 120.5625 " fill-opacity="1" fill-rule="nonzero"/><path fill="#b60000" d="M 212.792969 107.613281 C 213.234375 107.929688 213.738281 108.082031 214.242188 108.082031 C 215.023438 108.082031 215.792969 107.714844 216.285156 107.03125 L 227.105469 91.855469 C 227.90625 90.730469 227.644531 89.167969 226.519531 88.367188 C 225.394531 87.566406 223.835938 87.828125 223.03125 88.949219 L 212.207031 104.125 C 211.40625 105.25 211.667969 106.816406 212.792969 107.613281 " fill-opacity="1" fill-rule="nonzero"/><path fill="#b60000" d="M 227.667969 127.828125 C 228.109375 128.699219 228.992188 129.207031 229.90625 129.207031 C 230.28125 129.207031 230.667969 129.121094 231.027344 128.9375 L 247.683594 120.5625 C 248.914062 119.941406 249.414062 118.4375 248.792969 117.203125 C 248.171875 115.976562 246.667969 115.472656 245.433594 116.09375 L 228.78125 124.46875 C 227.546875 125.089844 227.050781 126.59375 227.667969 127.828125 " fill-opacity="1" fill-rule="nonzero"/><path fill="#b60000" d="M 117.964844 200.953125 C 118.257812 200.851562 147.4375 191.324219 167.6875 206.597656 C 168.140625 206.9375 168.667969 207.101562 169.191406 207.101562 C 169.953125 207.101562 170.699219 206.761719 171.195312 206.109375 C 172.023438 205.003906 171.804688 203.4375 170.703125 202.605469 C 148.3125 185.722656 117.660156 195.78125 116.367188 196.214844 C 115.058594 196.65625 114.355469 198.074219 114.796875 199.382812 C 115.238281 200.691406 116.65625 201.398438 117.964844 200.953125 " fill-opacity="1" fill-rule="nonzero"/><path fill="#b60000" d="M 167.6875 236.625 C 168.140625 236.964844 168.671875 237.132812 169.191406 237.132812 C 169.953125 237.132812 170.699219 236.785156 171.195312 236.136719 C 172.023438 235.03125 171.804688 233.460938 170.703125 232.632812 C 148.3125 215.753906 117.660156 225.804688 116.367188 226.242188 C 115.058594 226.683594 114.355469 228.101562 114.796875 229.410156 C 115.238281 230.71875 116.65625 231.429688 117.964844 230.984375 C 118.257812 230.882812 147.4375 221.351562 167.6875 236.625 " fill-opacity="1" fill-rule="nonzero"/><path fill="#b60000" d="M 203.804688 206.109375 C 204.300781 206.761719 205.046875 207.101562 205.808594 207.101562 C 206.332031 207.101562 206.859375 206.9375 207.3125 206.597656 C 227.5625 191.324219 256.738281 200.855469 257.03125 200.953125 C 258.347656 201.398438 259.757812 200.691406 260.199219 199.382812 C 260.640625 198.074219 259.9375 196.65625 258.628906 196.214844 C 257.335938 195.78125 226.6875 185.71875 204.296875 202.605469 C 203.195312 203.4375 202.976562 205.003906 203.804688 206.109375 " fill-opacity="1" fill-rule="nonzero"/><path fill="#b60000" d="M 258.628906 226.242188 C 257.335938 225.804688 226.679688 215.75 204.296875 232.632812 C 203.195312 233.460938 202.976562 235.03125 203.804688 236.136719 C 204.300781 236.785156 205.046875 237.132812 205.808594 237.132812 C 206.332031 237.132812 206.859375 236.964844 207.3125 236.625 C 227.5625 221.355469 256.738281 230.882812 257.03125 230.984375 C 258.347656 231.429688 259.757812 230.71875 260.199219 229.410156 C 260.640625 228.101562 259.9375 226.683594 258.628906 226.242188 " fill-opacity="1" fill-rule="nonzero"/><g clip-path="url(#8893f76bfe)"><path fill="#b60000" d="M 295.167969 281.929688 C 280.113281 276.078125 221.746094 256.429688 194.5 291.40625 L 180.496094 291.40625 C 153.257812 256.429688 94.882812 276.078125 79.828125 281.929688 L 79.828125 163.632812 C 81.859375 162.441406 86.574219 160.050781 92.015625 159.769531 L 92.015625 264.53125 C 92.015625 265.324219 92.394531 266.074219 93.039062 266.546875 C 93.679688 267.019531 94.507812 267.160156 95.269531 266.917969 C 95.878906 266.722656 156.894531 247.984375 185.636719 280.003906 C 185.644531 280.011719 185.652344 280.019531 185.660156 280.027344 C 185.675781 280.042969 185.691406 280.054688 185.703125 280.074219 C 185.773438 280.140625 185.84375 280.207031 185.917969 280.265625 C 185.9375 280.28125 185.957031 280.296875 185.976562 280.3125 C 186.160156 280.457031 186.363281 280.570312 186.574219 280.65625 C 186.585938 280.660156 186.59375 280.667969 186.605469 280.671875 C 186.617188 280.675781 186.628906 280.675781 186.640625 280.679688 C 186.765625 280.726562 186.898438 280.765625 187.03125 280.789062 C 187.050781 280.792969 187.066406 280.796875 187.085938 280.796875 C 187.222656 280.820312 187.363281 280.835938 187.5 280.835938 C 187.632812 280.835938 187.765625 280.820312 187.902344 280.800781 C 187.925781 280.796875 187.949219 280.792969 187.972656 280.789062 C 188.097656 280.765625 188.21875 280.730469 188.339844 280.6875 C 188.367188 280.679688 188.394531 280.667969 188.421875 280.65625 C 188.542969 280.609375 188.660156 280.550781 188.773438 280.484375 C 188.789062 280.476562 188.804688 280.464844 188.820312 280.453125 C 189.019531 280.332031 189.203125 280.183594 189.359375 280.003906 C 218.105469 247.984375 279.121094 266.722656 279.726562 266.917969 C 280.492188 267.160156 281.320312 267.019531 281.957031 266.546875 C 282.601562 266.074219 282.980469 265.324219 282.980469 264.53125 L 282.980469 159.679688 C 288.070312 159.503906 292.566406 159.578125 295.167969 159.65625 Z M 97.019531 148.792969 C 104.386719 146.761719 133.660156 139.640625 159.082031 146.648438 C 160.300781 150.585938 162.328125 154.257812 165.078125 157.410156 C 168.234375 161.023438 169.96875 165.875 169.972656 171.070312 L 169.976562 179.121094 C 169.976562 180.5 171.097656 181.621094 172.476562 181.621094 L 202.519531 181.621094 C 203.902344 181.621094 205.023438 180.5 205.023438 179.117188 L 205.023438 170.652344 C 205.023438 165.847656 206.867188 161.023438 210.214844 157.074219 C 210.214844 157.074219 210.214844 157.074219 210.21875 157.070312 C 212.851562 153.960938 214.777344 150.425781 215.941406 146.640625 C 241.355469 139.644531 270.613281 146.761719 277.976562 148.792969 L 277.976562 261.207031 C 265.113281 257.75 218.074219 247.425781 190 272.324219 L 190 193.148438 L 202.1875 193.148438 C 203.570312 193.148438 204.6875 192.027344 204.6875 190.644531 C 204.6875 189.265625 203.570312 188.144531 202.1875 188.144531 L 172.8125 188.144531 C 171.429688 188.144531 170.3125 189.265625 170.3125 190.644531 C 170.3125 192.027344 171.429688 193.148438 172.8125 193.148438 L 185 193.148438 L 185 272.332031 C 156.929688 247.429688 109.886719 257.75 97.019531 261.207031 Z M 171.007812 119.398438 C 176.328125 114.640625 183.199219 112.464844 190.363281 113.261719 C 201.828125 114.546875 210.976562 123.816406 212.121094 135.304688 C 212.414062 138.222656 212.203125 141.097656 211.519531 143.839844 C 211.484375 143.945312 211.457031 144.058594 211.4375 144.167969 C 210.511719 147.6875 208.816406 150.984375 206.394531 153.835938 C 202.285156 158.691406 200.019531 164.664062 200.019531 170.652344 L 200.019531 176.617188 L 174.976562 176.617188 L 174.976562 171.066406 C 174.972656 164.664062 172.796875 158.644531 168.847656 154.121094 C 166.316406 151.226562 164.523438 147.800781 163.566406 144.132812 C 163.550781 144.0625 163.53125 143.992188 163.511719 143.925781 C 163.011719 141.953125 162.75 139.917969 162.75 137.855469 C 162.75 130.816406 165.761719 124.09375 171.007812 119.398438 Z M 297.804688 154.75 C 297.511719 154.730469 291.078125 154.402344 282.980469 154.671875 L 282.980469 146.914062 C 282.980469 145.820312 282.273438 144.855469 281.234375 144.527344 C 279.796875 144.074219 247.042969 133.9375 217.066406 141.1875 C 217.296875 139.09375 217.316406 136.960938 217.101562 134.808594 C 215.726562 120.984375 204.714844 109.832031 190.921875 108.289062 C 182.449219 107.332031 173.972656 110.03125 167.675781 115.667969 C 161.363281 121.3125 157.746094 129.394531 157.746094 137.855469 C 157.746094 138.972656 157.816406 140.085938 157.941406 141.1875 C 127.960938 133.941406 95.199219 144.074219 93.765625 144.527344 C 92.722656 144.855469 92.015625 145.820312 92.015625 146.914062 L 92.015625 154.75 C 83.183594 155.085938 76.199219 159.980469 75.882812 160.207031 C 75.21875 160.675781 74.824219 161.4375 74.824219 162.25 L 74.824219 285.652344 C 74.824219 286.492188 75.25 287.28125 75.957031 287.742188 C 76.660156 288.207031 77.554688 288.28125 78.324219 287.941406 C 79.03125 287.632812 149.277344 257.589844 177.246094 295.394531 C 177.714844 296.03125 178.460938 296.410156 179.253906 296.410156 L 195.742188 296.410156 C 196.539062 296.410156 197.28125 296.03125 197.753906 295.394531 C 225.71875 257.59375 295.964844 287.632812 296.671875 287.941406 C 297.445312 288.277344 298.335938 288.207031 299.042969 287.742188 C 299.746094 287.28125 300.171875 286.492188 300.171875 285.652344 L 300.171875 157.246094 C 300.171875 155.914062 299.132812 154.816406 297.804688 154.75 " fill-opacity="1" fill-rule="nonzero"/></g></svg>