<svg xmlns="http://www.w3.org/2000/svg" xmlns:xlink="http://www.w3.org/1999/xlink" width="500" zoomAndPan="magnify" viewBox="0 0 375 374.999991" height="500" preserveAspectRatio="xMidYMid meet" version="1.0"><defs><clipPath id="fcc3452620"><path d="M 230 103.761719 L 337.820312 103.761719 L 337.820312 182 L 230 182 Z M 230 103.761719 " clip-rule="nonzero"/></clipPath><clipPath id="415d8de6f1"><path d="M 189 173 L 288 173 L 288 271.011719 L 189 271.011719 Z M 189 173 " clip-rule="nonzero"/></clipPath><clipPath id="673eed86ce"><path d="M 70.070312 137 L 169 137 L 169 271.011719 L 70.070312 271.011719 Z M 70.070312 137 " clip-rule="nonzero"/></clipPath></defs><rect x="-37.5" width="450" fill="#ffffff" y="-37.499999" height="449.999989" fill-opacity="1"/><rect x="-37.5" width="450" fill="#ffffff" y="-37.499999" height="449.999989" fill-opacity="1"/><path fill="#5170ff" d="M 182.054688 141.214844 L 182.054688 267.449219 C 199.125 255.597656 224.859375 248.660156 252.691406 248.660156 L 264.972656 248.660156 L 264.972656 176.761719 L 238.78125 192.316406 C 238.226562 192.640625 237.609375 192.804688 236.996094 192.804688 C 236.230469 192.804688 235.46875 192.558594 234.839844 192.070312 C 233.703125 191.183594 233.222656 189.695312 233.632812 188.308594 L 237.875 173.917969 C 229.929688 173.671875 223.542969 167.125 223.542969 159.121094 L 223.542969 123.445312 C 206.503906 126.820312 191.953125 133.042969 182.054688 141.214844 Z M 216.355469 180.046875 C 209.441406 181.800781 202.953125 184.066406 197.085938 186.785156 C 196.613281 187.007812 196.109375 187.113281 195.613281 187.113281 C 194.292969 187.113281 193.027344 186.359375 192.4375 185.082031 C 191.621094 183.328125 192.386719 181.246094 194.144531 180.433594 C 200.402344 177.523438 207.296875 175.113281 214.632812 173.257812 C 216.503906 172.777344 218.410156 173.910156 218.886719 175.789062 C 219.359375 177.664062 218.226562 179.570312 216.355469 180.046875 Z M 197.085938 163.914062 C 196.613281 164.136719 196.109375 164.242188 195.613281 164.242188 C 194.292969 164.242188 193.027344 163.488281 192.4375 162.210938 C 191.621094 160.457031 192.386719 158.375 194.144531 157.5625 C 198.617188 155.488281 203.445312 153.648438 208.5 152.097656 C 210.351562 151.53125 212.308594 152.570312 212.878906 154.421875 C 213.445312 156.273438 212.40625 158.226562 210.554688 158.792969 C 205.804688 160.253906 201.273438 161.976562 197.085938 163.914062 Z M 197.085938 209.65625 C 196.613281 209.878906 196.109375 209.984375 195.613281 209.984375 C 194.292969 209.984375 193.027344 209.230469 192.4375 207.953125 C 191.621094 206.199219 192.386719 204.117188 194.144531 203.304688 C 200.472656 200.367188 207.449219 197.933594 214.875 196.0625 C 216.757812 195.589844 218.660156 196.730469 219.132812 198.605469 C 219.601562 200.484375 218.460938 202.386719 216.585938 202.855469 C 209.582031 204.617188 203.023438 206.90625 197.085938 209.65625 Z M 194.144531 226.167969 C 210.304688 218.679688 230.648438 214.550781 251.417969 214.550781 C 253.347656 214.550781 254.921875 216.121094 254.921875 218.054688 C 254.921875 219.984375 253.347656 221.554688 251.417969 221.554688 C 231.640625 221.554688 212.347656 225.457031 197.085938 232.527344 C 196.613281 232.75 196.109375 232.855469 195.613281 232.855469 C 194.292969 232.855469 193.027344 232.101562 192.4375 230.824219 C 191.621094 229.066406 192.386719 226.988281 194.144531 226.167969 Z M 194.144531 226.167969 " fill-opacity="1" fill-rule="evenodd"/><path fill="#5170ff" d="M 160.019531 232.527344 C 144.757812 225.457031 125.464844 221.554688 105.6875 221.554688 C 103.757812 221.554688 102.1875 219.992188 102.1875 218.054688 C 102.1875 216.113281 103.757812 214.550781 105.6875 214.550781 C 126.464844 214.550781 146.800781 218.679688 162.96875 226.167969 C 164.71875 226.988281 165.484375 229.070312 164.675781 230.824219 C 164.078125 232.101562 162.8125 232.855469 161.492188 232.855469 C 160.996094 232.855469 160.5 232.75 160.019531 232.527344 Z M 175.050781 267.449219 L 175.050781 141.21875 C 159.636719 128.5 132.78125 120.648438 104.417969 120.648438 L 92.136719 120.648438 L 92.136719 248.660156 L 104.417969 248.660156 C 132.246094 248.660156 157.984375 255.597656 175.050781 267.449219 Z M 160.019531 209.65625 C 144.757812 202.585938 125.464844 198.683594 105.6875 198.683594 C 103.757812 198.683594 102.1875 197.121094 102.1875 195.183594 C 102.1875 193.242188 103.757812 191.679688 105.6875 191.679688 C 126.464844 191.679688 146.800781 195.808594 162.96875 203.304688 C 164.71875 204.117188 165.484375 206.199219 164.675781 207.953125 C 164.078125 209.230469 162.8125 209.984375 161.492188 209.984375 C 160.996094 209.984375 160.5 209.878906 160.019531 209.65625 Z M 160.019531 186.785156 C 144.757812 179.714844 125.464844 175.8125 105.6875 175.8125 C 103.757812 175.8125 102.1875 174.25 102.1875 172.3125 C 102.1875 170.371094 103.757812 168.808594 105.6875 168.808594 C 126.464844 168.808594 146.800781 172.9375 162.96875 180.433594 C 164.71875 181.246094 165.484375 183.328125 164.675781 185.082031 C 164.078125 186.359375 162.8125 187.113281 161.492188 187.113281 C 160.996094 187.113281 160.5 187.007812 160.019531 186.785156 Z M 160.019531 163.914062 C 144.761719 156.84375 125.464844 152.949219 105.6875 152.949219 C 103.757812 152.949219 102.1875 151.378906 102.1875 149.445312 C 102.1875 147.511719 103.757812 145.941406 105.6875 145.941406 C 126.464844 145.941406 146.800781 150.066406 162.96875 157.5625 C 164.71875 158.375 165.484375 160.457031 164.675781 162.210938 C 164.078125 163.488281 162.8125 164.242188 161.492188 164.242188 C 160.996094 164.242188 160.5 164.136719 160.019531 163.914062 Z M 160.019531 163.914062 " fill-opacity="1" fill-rule="evenodd"/><g clip-path="url(#fcc3452620)"><path fill="#000000" d="M 230.546875 159.121094 C 230.546875 163.425781 234.046875 166.921875 238.347656 166.921875 L 242.558594 166.921875 C 243.664062 166.921875 244.703125 167.441406 245.363281 168.324219 C 246.027344 169.210938 246.230469 170.355469 245.917969 171.410156 L 242.875 181.734375 L 266.988281 167.414062 C 267.527344 167.089844 268.144531 166.921875 268.777344 166.921875 L 329.691406 166.921875 C 333.996094 166.921875 337.492188 163.425781 337.492188 159.121094 L 337.492188 111.621094 C 337.492188 107.316406 333.996094 103.820312 329.691406 103.820312 L 238.347656 103.820312 C 234.046875 103.820312 230.546875 107.316406 230.546875 111.621094 Z M 269.886719 142.011719 L 261.144531 133.265625 C 260.210938 132.335938 259.882812 130.960938 260.285156 129.703125 C 260.695312 128.453125 261.769531 127.539062 263.070312 127.328125 L 275.285156 125.394531 L 280.898438 114.378906 C 281.492188 113.203125 282.703125 112.460938 284.019531 112.460938 C 285.339844 112.460938 286.542969 113.203125 287.144531 114.378906 L 292.757812 125.394531 L 304.972656 127.328125 C 306.273438 127.539062 307.347656 128.453125 307.757812 129.703125 C 308.160156 130.960938 307.832031 132.335938 306.898438 133.265625 L 298.15625 142.011719 L 300.089844 154.226562 C 300.292969 155.523438 299.757812 156.832031 298.6875 157.609375 C 297.625 158.378906 296.210938 158.492188 295.039062 157.894531 L 284.019531 152.285156 L 273.003906 157.894531 C 272.5 158.152344 271.957031 158.273438 271.414062 158.273438 C 270.683594 158.273438 269.960938 158.050781 269.355469 157.609375 C 268.285156 156.832031 267.75 155.523438 267.953125 154.226562 Z M 269.886719 142.011719 " fill-opacity="1" fill-rule="evenodd"/></g><path fill="#5170ff" d="M 276.105469 138.324219 C 276.890625 139.109375 277.257812 140.238281 277.085938 141.347656 L 275.945312 148.535156 L 282.433594 145.230469 C 282.929688 144.972656 283.476562 144.851562 284.019531 144.851562 C 284.5625 144.851562 285.113281 144.972656 285.609375 145.230469 L 292.097656 148.535156 L 290.957031 141.347656 C 290.78125 140.238281 291.148438 139.109375 291.9375 138.324219 L 297.089844 133.171875 L 289.902344 132.035156 C 288.792969 131.859375 287.832031 131.164062 287.324219 130.164062 L 284.019531 123.679688 L 280.714844 130.164062 C 280.207031 131.164062 279.25 131.859375 278.140625 132.035156 L 270.953125 133.171875 L 276.101562 138.324219 Z M 276.105469 138.324219 " fill-opacity="1" fill-rule="evenodd"/><g clip-path="url(#415d8de6f1)"><path fill="#000000" d="M 287.035156 173.929688 L 271.980469 173.929688 L 271.980469 252.164062 C 271.980469 254.101562 270.410156 255.667969 268.476562 255.667969 L 252.691406 255.667969 C 228.257812 255.667969 204.949219 261.496094 189.105469 271.234375 L 287.035156 271.234375 Z M 287.035156 173.929688 " fill-opacity="1" fill-rule="evenodd"/></g><g clip-path="url(#673eed86ce)"><path fill="#000000" d="M 168.007812 271.234375 C 152.15625 261.496094 128.847656 255.667969 104.417969 255.667969 L 88.632812 255.667969 C 86.695312 255.667969 85.128906 254.101562 85.128906 252.164062 L 85.128906 137.644531 L 70.070312 137.644531 L 70.070312 271.234375 Z M 168.007812 271.234375 " fill-opacity="1" fill-rule="evenodd"/></g></svg>