<?xml version="1.0" encoding="utf-8" ?>
<svg xmlns="http://www.w3.org/2000/svg" xmlns:xlink="http://www.w3.org/1999/xlink" width="32" height="32" viewBox="0 0 32 32">
	<defs>
		<clipPath id="clipPath0015691309">
			<path d="M0 0L32 0L32 32L0 32L0 0Z" fill-rule="nonzero" transform="matrix(1 0 0 1 0 0)"/>
		</clipPath>
	</defs>
	<g clip-path="url(#clipPath0015691309)">
		<path d="M28 0C23.7744 0.0181251 20.6331 0.6 18.36 1.60563C16.6637 2.35563 16 2.92313 16 4.84562L16 25C18.5981 22.6562 20.9037 22 30 22L30 0L28 0ZM2 0C6.22563 0.0181251 9.36687 0.6 11.64 1.60563C13.3363 2.35563 14 2.92313 14 4.84562L14 25C11.4019 22.6562 9.09625 22 0 22L0 0L2 0Z" fill-rule="nonzero" transform="matrix(1 0 0 1 1 3)" fill="rgb(55, 65, 81)"/>
	</g>
</svg>
