<svg xmlns="http://www.w3.org/2000/svg" xmlns:xlink="http://www.w3.org/1999/xlink" width="1280" zoomAndPan="magnify" viewBox="0 0 960 540.000001" height="720" preserveAspectRatio="xMidYMid meet" version="1.0"><defs><clipPath id="0df6436cf0"><path d="M 0.886719 0 L 959.113281 0 L 959.113281 539 L 0.886719 539 Z M 0.886719 0 " clip-rule="nonzero"/></clipPath><clipPath id="c3ca6ab67d"><path d="M 233.027344 68.835938 L 727 68.835938 L 727 470.089844 L 233.027344 470.089844 Z M 233.027344 68.835938 " clip-rule="nonzero"/></clipPath><clipPath id="ba29f9c38c"><path d="M 325 255 L 635 255 L 635 470.089844 L 325 470.089844 Z M 325 255 " clip-rule="nonzero"/></clipPath></defs><g clip-path="url(#0df6436cf0)"><path fill="#ffffff" d="M 0.886719 0 L 959.113281 0 L 959.113281 539 L 0.886719 539 Z M 0.886719 0 " fill-opacity="1" fill-rule="nonzero"/><path fill="#ffffff" d="M 0.886719 0 L 959.113281 0 L 959.113281 539 L 0.886719 539 Z M 0.886719 0 " fill-opacity="1" fill-rule="nonzero"/></g><g clip-path="url(#c3ca6ab67d)"><path fill="#001079" d="M 233.027344 192.320312 L 479.996094 315.804688 L 696.097656 207.753906 L 696.097656 470.160156 L 726.96875 470.160156 L 726.96875 192.320312 L 479.996094 68.835938 Z M 233.027344 192.320312 " fill-opacity="1" fill-rule="nonzero"/></g><g clip-path="url(#ba29f9c38c)"><path fill="#001079" d="M 325.640625 255.882812 L 325.640625 392.984375 L 479.996094 470.160156 L 634.355469 392.984375 L 634.355469 255.882812 L 479.996094 333.0625 Z M 325.640625 255.882812 " fill-opacity="1" fill-rule="nonzero"/></g></svg>