<?xml version="1.0" encoding="utf-8" ?>
<svg xmlns="http://www.w3.org/2000/svg" xmlns:xlink="http://www.w3.org/1999/xlink" width="32" height="32" viewBox="0 0 32 32">
	<defs>
		<clipPath id="clipPath8924628824">
			<path d="M0 0L32 0L32 32L0 32L0 0Z" fill-rule="nonzero" transform="matrix(1 0 0 1 0 0)"/>
		</clipPath>
	</defs>
	<g clip-path="url(#clipPath8924628824)">
		<path d="M-0.496139 7.13176L13.5039 -0.868243Q13.6172 -0.932999 13.7433 -0.9665Q13.8695 -1 14 -1Q14.1305 -1 14.2567 -0.9665Q14.3828 -0.932999 14.4961 -0.868243L28.4961 7.13176Q28.5817 7.18062 28.656 7.24523Q28.7303 7.30984 28.7906 7.38771Q28.8509 7.46558 28.8949 7.55372Q28.9388 7.64186 28.9648 7.73688Q28.9907 7.8319 28.9976 7.93015Q29.0044 8.02841 28.992 8.12611Q28.9796 8.22381 28.9483 8.31722Q28.9171 8.41062 28.8682 8.49614Q28.7329 8.73293 28.4961 8.86824L14.4961 16.8682Q14.3828 16.933 14.2567 16.9665Q14.1305 17 14 17Q13.8695 17 13.7433 16.9665Q13.6172 16.933 13.5039 16.8682L-0.496139 8.86824Q-0.581653 8.81938 -0.655992 8.75477Q-0.73033 8.69016 -0.790635 8.61229Q-0.85094 8.53442 -0.894894 8.44628Q-0.938849 8.35814 -0.964764 8.26312Q-0.990679 8.1681 -0.997558 8.06984Q-1.00444 7.97159 -0.992016 7.87389Q-0.979595 7.77618 -0.948352 7.68278Q-0.917109 7.58938 -0.868243 7.50386Q-0.732933 7.26707 -0.496139 7.13176L-0.496139 7.13176ZM0.496139 8.86824L0 8L0.496139 7.13176L14.4961 15.1318L14 16L13.5039 15.1318L27.5039 7.13176L28 8L27.5039 8.86824L13.5039 0.868243L14 0L14.4961 0.868243L0.496139 8.86824Z" fill-rule="nonzero" transform="matrix(1 0 0 1 2 4)" fill="rgb(55, 65, 81)"/>
		<path d="M23 -1C22.4477 -1 22 -0.55228 22 0L22 11C22 11.5523 22.4477 12 23 12C23.5523 12 24 11.5523 24 11L24 0C24 -0.55228 23.5523 -1 23 -1ZM-1 3C-1 2.44772 -0.55228 2 0 2C0.55228 2 1 2.44772 1 3L1 10.4116L8 14.3005L8 8C8 7.44772 8.44772 7 9 7C9.55228 7 10 7.44772 10 8L10 14.3005L17 10.4116L17 3C17 2.44772 17.4477 2 18 2C18.5523 2 19 2.44772 19 3L19 11Q19 11.1338 18.9648 11.2628Q18.9297 11.3919 18.8619 11.5071Q18.794 11.6224 18.6983 11.7158Q18.6026 11.8092 18.4856 11.8742L9.48564 16.8742Q9.37423 16.9361 9.25084 16.968Q9.12746 17 9 17Q8.87254 17 8.74916 16.968Q8.62577 16.9361 8.51436 16.8742L-0.485643 11.8742Q-0.602563 11.8092 -0.698302 11.7158Q-0.794042 11.6224 -0.861871 11.5071Q-0.9297 11.3919 -0.96485 11.2628Q-1 11.1338 -1 11L-1 3Z" fill-rule="evenodd" transform="matrix(1 0 0 1 7 12)" fill="rgb(55, 65, 81)"/>
	</g>
</svg>
