<svg xmlns="http://www.w3.org/2000/svg" xmlns:xlink="http://www.w3.org/1999/xlink" width="500" zoomAndPan="magnify" viewBox="0 0 375 374.999991" height="500" preserveAspectRatio="xMidYMid meet" version="1.0"><defs><clipPath id="76fc7361df"><path d="M 25 130 L 350 130 L 350 294.695312 L 25 294.695312 Z M 25 130 " clip-rule="nonzero"/></clipPath><clipPath id="8ef4f55c99"><path d="M 82 80.195312 L 190 80.195312 L 190 289 L 82 289 Z M 82 80.195312 " clip-rule="nonzero"/></clipPath><clipPath id="51ad41e2df"><path d="M 185 80.195312 L 293 80.195312 L 293 289 L 185 289 Z M 185 80.195312 " clip-rule="nonzero"/></clipPath></defs><g clip-path="url(#76fc7361df)"><path fill="#000000" d="M 187.5 138.738281 C 187.496094 138.738281 82.535156 116.890625 25.101562 145.285156 L 25.101562 294.84375 C 82.535156 266.449219 187.492188 288.292969 187.5 288.296875 C 187.507812 288.292969 292.472656 266.449219 349.898438 294.84375 L 349.898438 145.285156 C 292.464844 116.890625 187.503906 138.738281 187.5 138.738281 Z M 187.5 138.738281 " fill-opacity="1" fill-rule="nonzero"/></g><path fill="#ff82ef" d="M 187.5 286.375 C 187.5 286.375 105.65625 247.054688 43.800781 274.648438 L 43.800781 129.628906 C 105.65625 102.039062 187.5 141.355469 187.5 141.355469 Z M 187.5 286.375 " fill-opacity="1" fill-rule="nonzero"/><path fill="#000000" d="M 187.5 288.320312 C 187.210938 288.320312 186.921875 288.253906 186.65625 288.128906 C 186.527344 288.0625 175.308594 282.714844 158.375 277.4375 C 142.769531 272.578125 118.980469 266.773438 94.261719 266.773438 C 75.660156 266.773438 58.953125 270.023438 44.59375 276.425781 C 43.992188 276.695312 43.296875 276.644531 42.738281 276.28125 C 42.1875 275.921875 41.855469 275.304688 41.855469 274.648438 L 41.855469 129.628906 C 41.855469 128.859375 42.304688 128.164062 43.007812 127.851562 C 50.796875 124.371094 59.320312 121.773438 68.335938 120.121094 C 76.476562 118.621094 85.199219 117.863281 94.261719 117.863281 C 105.414062 117.863281 117.308594 119.007812 129.597656 121.261719 C 139.417969 123.0625 149.511719 125.570312 159.613281 128.726562 C 176.808594 134.085938 188.234375 139.546875 188.351562 139.605469 C 189.023438 139.925781 189.453125 140.605469 189.453125 141.355469 L 189.453125 286.375 C 189.453125 287.042969 189.109375 287.667969 188.542969 288.019531 C 188.222656 288.222656 187.859375 288.320312 187.5 288.320312 Z M 94.261719 262.878906 C 105.414062 262.878906 117.304688 264.023438 129.59375 266.277344 C 139.414062 268.082031 149.507812 270.589844 159.605469 273.742188 C 171.839844 277.558594 181.15625 281.425781 185.546875 283.355469 L 185.546875 142.605469 C 182.324219 141.140625 172.277344 136.757812 158.375 132.421875 C 142.769531 127.558594 118.984375 121.757812 94.257812 121.757812 C 76.15625 121.757812 59.84375 124.835938 45.746094 130.902344 L 45.746094 271.691406 C 52.785156 268.796875 60.363281 266.59375 68.332031 265.128906 C 76.476562 263.636719 85.195312 262.878906 94.261719 262.878906 Z M 94.261719 262.878906 " fill-opacity="1" fill-rule="nonzero"/><path fill="#ff82ef" d="M 187.5 286.375 C 187.5 286.375 122.722656 237.699219 59.28125 249.71875 L 59.28125 108.617188 C 122.722656 96.59375 187.5 145.273438 187.5 145.273438 Z M 187.5 286.375 " fill-opacity="1" fill-rule="nonzero"/><path fill="#000000" d="M 187.5 288.320312 C 187.085938 288.320312 186.671875 288.191406 186.332031 287.929688 C 186.300781 287.90625 183.082031 285.492188 177.496094 281.945312 C 172.34375 278.675781 164.070312 273.742188 153.910156 268.804688 C 136.015625 260.117188 108.699219 249.757812 80.164062 249.757812 C 73.113281 249.757812 66.214844 250.390625 59.648438 251.632812 C 59.078125 251.738281 58.488281 251.589844 58.039062 251.21875 C 57.59375 250.847656 57.332031 250.300781 57.332031 249.71875 L 57.332031 108.617188 C 57.332031 107.683594 58 106.878906 58.917969 106.703125 C 65.726562 105.417969 72.871094 104.761719 80.160156 104.761719 C 93.117188 104.761719 106.890625 106.816406 121.097656 110.863281 C 132.429688 114.089844 144.070312 118.589844 155.6875 124.238281 C 166.011719 129.261719 174.414062 134.28125 179.648438 137.605469 C 185.335938 141.21875 188.53125 143.617188 188.667969 143.714844 C 189.160156 144.082031 189.445312 144.660156 189.445312 145.269531 L 189.445312 286.371094 C 189.445312 287.109375 189.027344 287.785156 188.367188 288.113281 C 188.097656 288.25 187.796875 288.320312 187.5 288.320312 Z M 80.160156 245.859375 C 93.117188 245.859375 106.890625 247.917969 121.097656 251.957031 C 132.429688 255.191406 144.074219 259.691406 155.6875 265.339844 C 166.011719 270.355469 174.417969 275.382812 179.648438 278.703125 C 182.089844 280.253906 184.066406 281.578125 185.542969 282.59375 L 185.542969 146.257812 C 184.277344 145.347656 181.492188 143.390625 177.488281 140.851562 C 172.34375 137.578125 164.070312 132.640625 153.90625 127.710938 C 136.011719 119.015625 108.695312 108.65625 80.15625 108.65625 C 73.671875 108.65625 67.3125 109.191406 61.230469 110.246094 L 61.230469 247.394531 C 67.335938 246.375 73.691406 245.859375 80.160156 245.859375 Z M 80.160156 245.859375 " fill-opacity="1" fill-rule="nonzero"/><path fill="#ff82ef" d="M 187.5 132.851562 C 150.105469 82.761719 83.992188 82.097656 83.992188 82.097656 L 83.992188 235.621094 C 83.992188 235.621094 150.105469 236.285156 187.5 286.375 Z M 187.5 132.851562 " fill-opacity="1" fill-rule="nonzero"/><g clip-path="url(#8ef4f55c99)"><path fill="#000000" d="M 187.5 288.320312 C 186.894531 288.320312 186.316406 288.042969 185.9375 287.539062 C 166.964844 262.125 140.304688 249.898438 121.273438 244.113281 C 110.453125 240.824219 100.890625 239.222656 94.777344 238.453125 C 88.136719 237.621094 84.011719 237.566406 83.972656 237.566406 C 82.902344 237.554688 82.042969 236.6875 82.042969 235.621094 L 82.042969 82.097656 C 82.042969 81.582031 82.25 81.078125 82.621094 80.714844 C 82.988281 80.351562 83.488281 80.144531 84.011719 80.152344 C 84.183594 80.152344 88.332031 80.199219 95.144531 81.050781 C 101.40625 81.832031 111.199219 83.46875 122.289062 86.828125 C 134.761719 90.609375 146.292969 95.761719 156.578125 102.132812 C 169.453125 110.121094 180.382812 120.0625 189.058594 131.683594 C 189.308594 132.023438 189.445312 132.429688 189.445312 132.851562 L 189.445312 286.375 C 189.445312 287.207031 188.90625 287.957031 188.113281 288.222656 C 187.910156 288.289062 187.703125 288.320312 187.5 288.320312 Z M 85.9375 233.742188 C 87.816406 233.835938 90.984375 234.054688 95.148438 234.574219 C 101.410156 235.355469 111.207031 236.992188 122.292969 240.351562 C 134.765625 244.128906 146.296875 249.28125 156.582031 255.65625 C 167.78125 262.601562 177.503906 271.027344 185.550781 280.742188 L 185.550781 133.503906 C 166.578125 108.402344 140.097656 96.300781 121.164062 90.558594 C 110.335938 87.277344 100.777344 85.683594 94.667969 84.921875 C 90.769531 84.4375 87.765625 84.21875 85.9375 84.125 Z M 85.9375 233.742188 " fill-opacity="1" fill-rule="nonzero"/></g><path fill="#ff82ef" d="M 187.5 286.375 C 187.5 286.375 269.34375 247.054688 331.199219 274.648438 L 331.199219 129.628906 C 269.34375 102.039062 187.5 141.355469 187.5 141.355469 Z M 187.5 286.375 " fill-opacity="1" fill-rule="nonzero"/><path fill="#000000" d="M 187.5 288.320312 C 187.136719 288.320312 186.777344 288.222656 186.460938 288.019531 C 185.894531 287.667969 185.546875 287.042969 185.546875 286.375 L 185.546875 141.355469 C 185.546875 140.605469 185.976562 139.925781 186.65625 139.605469 C 186.769531 139.546875 198.199219 134.085938 215.390625 128.726562 C 225.484375 125.570312 235.582031 123.0625 245.40625 121.261719 C 257.691406 119.003906 269.578125 117.863281 280.738281 117.863281 C 289.800781 117.863281 298.523438 118.621094 306.660156 120.121094 C 315.679688 121.773438 324.207031 124.371094 331.996094 127.851562 C 332.691406 128.164062 333.152344 128.859375 333.152344 129.628906 L 333.152344 274.644531 C 333.152344 275.300781 332.8125 275.917969 332.261719 276.277344 C 331.710938 276.636719 331.015625 276.691406 330.410156 276.421875 C 316.046875 270.019531 299.339844 266.769531 280.738281 266.769531 C 256.015625 266.769531 232.230469 272.570312 216.628906 277.433594 C 199.679688 282.714844 188.453125 288.074219 188.347656 288.125 C 188.078125 288.253906 187.785156 288.320312 187.5 288.320312 Z M 189.449219 142.605469 L 189.449219 283.355469 C 193.847656 281.425781 203.160156 277.558594 215.398438 273.742188 C 225.492188 270.589844 235.589844 268.082031 245.40625 266.277344 C 257.691406 264.019531 269.578125 262.878906 280.738281 262.878906 C 289.800781 262.878906 298.523438 263.640625 306.660156 265.136719 C 314.636719 266.597656 322.214844 268.800781 329.257812 271.695312 L 329.257812 130.902344 C 315.15625 124.835938 298.847656 121.757812 280.738281 121.757812 C 256.015625 121.757812 232.230469 127.558594 216.628906 132.421875 C 202.722656 136.757812 192.671875 141.140625 189.449219 142.605469 Z M 189.449219 142.605469 " fill-opacity="1" fill-rule="nonzero"/><path fill="#ff82ef" d="M 187.5 286.375 C 187.5 286.375 252.273438 237.699219 315.714844 249.71875 L 315.714844 108.617188 C 252.273438 96.59375 187.5 145.273438 187.5 145.273438 Z M 187.5 286.375 " fill-opacity="1" fill-rule="nonzero"/><path fill="#000000" d="M 187.5 288.320312 C 187.203125 288.320312 186.902344 288.25 186.628906 288.117188 C 185.96875 287.789062 185.546875 287.113281 185.546875 286.375 L 185.546875 145.273438 C 185.546875 144.660156 185.835938 144.085938 186.332031 143.71875 C 186.460938 143.621094 189.664062 141.222656 195.347656 137.609375 C 200.582031 134.28125 208.984375 129.265625 219.3125 124.242188 C 230.929688 118.59375 242.570312 114.09375 253.90625 110.867188 C 268.109375 106.816406 281.886719 104.765625 294.84375 104.765625 C 302.132812 104.765625 309.277344 105.421875 316.085938 106.710938 C 317 106.886719 317.667969 107.6875 317.667969 108.621094 L 317.667969 249.722656 C 317.667969 250.304688 317.40625 250.851562 316.964844 251.222656 C 316.515625 251.59375 315.933594 251.742188 315.363281 251.636719 C 308.792969 250.394531 301.886719 249.761719 294.84375 249.761719 C 266.277344 249.761719 238.929688 260.144531 221.019531 268.847656 C 201.578125 278.296875 188.796875 287.835938 188.675781 287.9375 C 188.324219 288.191406 187.914062 288.320312 187.5 288.320312 Z M 189.449219 146.257812 L 189.449219 282.59375 C 190.925781 281.578125 192.90625 280.253906 195.347656 278.703125 C 200.582031 275.378906 208.984375 270.355469 219.316406 265.339844 C 230.9375 259.691406 242.570312 255.191406 253.90625 251.957031 C 268.109375 247.914062 281.886719 245.859375 294.84375 245.859375 C 301.308594 245.859375 307.664062 246.375 313.773438 247.398438 L 313.773438 110.25 C 307.683594 109.195312 301.328125 108.660156 294.84375 108.660156 C 266.304688 108.660156 238.992188 119.015625 221.09375 127.714844 C 210.933594 132.648438 202.660156 137.582031 197.511719 140.855469 C 193.507812 143.390625 190.71875 145.347656 189.449219 146.257812 Z M 189.449219 146.257812 " fill-opacity="1" fill-rule="nonzero"/><path fill="#ff82ef" d="M 187.5 132.851562 C 224.898438 82.761719 291.003906 82.097656 291.003906 82.097656 L 291.003906 235.621094 C 291.003906 235.621094 224.898438 236.285156 187.5 286.375 Z M 187.5 132.851562 " fill-opacity="1" fill-rule="nonzero"/><g clip-path="url(#51ad41e2df)"><path fill="#000000" d="M 187.5 288.320312 C 187.292969 288.320312 187.089844 288.289062 186.886719 288.222656 C 186.089844 287.957031 185.546875 287.210938 185.546875 286.375 L 185.546875 132.851562 C 185.546875 132.429688 185.6875 132.027344 185.9375 131.683594 C 194.621094 120.0625 205.542969 110.121094 218.421875 102.132812 C 228.699219 95.757812 240.238281 90.609375 252.714844 86.828125 C 263.796875 83.46875 273.589844 81.832031 279.847656 81.050781 C 286.660156 80.199219 290.816406 80.152344 290.988281 80.152344 C 290.996094 80.152344 290.996094 80.152344 291.003906 80.152344 C 291.523438 80.152344 292.011719 80.351562 292.378906 80.714844 C 292.742188 81.078125 292.957031 81.582031 292.957031 82.097656 L 292.957031 235.621094 C 292.957031 236.6875 292.089844 237.554688 291.023438 237.566406 C 290.988281 237.566406 286.855469 237.621094 280.222656 238.453125 C 274.105469 239.222656 264.542969 240.824219 253.722656 244.113281 C 234.699219 249.898438 208.03125 262.125 189.058594 287.539062 C 188.683594 288.042969 188.101562 288.320312 187.5 288.320312 Z M 189.449219 133.503906 L 189.449219 280.746094 C 197.5 271.03125 207.226562 262.601562 218.421875 255.660156 C 228.699219 249.28125 240.238281 244.132812 252.714844 240.355469 C 263.796875 236.996094 273.589844 235.359375 279.847656 234.578125 C 284.015625 234.058594 287.1875 233.839844 289.0625 233.746094 L 289.0625 84.132812 C 287.210938 84.226562 284.167969 84.449219 280.222656 84.945312 C 274.105469 85.714844 264.542969 87.316406 253.722656 90.605469 C 234.828125 96.339844 208.398438 108.441406 189.449219 133.503906 Z M 189.449219 133.503906 " fill-opacity="1" fill-rule="nonzero"/></g></svg>