<svg xmlns="http://www.w3.org/2000/svg" xmlns:xlink="http://www.w3.org/1999/xlink" width="500" zoomAndPan="magnify" viewBox="0 0 375 374.999991" height="500" preserveAspectRatio="xMidYMid meet" version="1.0"><defs><clipPath id="a19984c6b8"><path d="M 133 19.652344 L 242 19.652344 L 242 129 L 133 129 Z M 133 19.652344 " clip-rule="nonzero"/></clipPath><clipPath id="1d2626c7f8"><path d="M 264 229 L 314.605469 229 L 314.605469 267 L 264 267 Z M 264 229 " clip-rule="nonzero"/></clipPath><clipPath id="5213d2720d"><path d="M 75 178 L 300 178 L 300 355.652344 L 75 355.652344 Z M 75 178 " clip-rule="nonzero"/></clipPath><clipPath id="5d47b2b1c5"><path d="M 60.355469 229 L 111 229 L 111 267 L 60.355469 267 Z M 60.355469 229 " clip-rule="nonzero"/></clipPath><clipPath id="d151daf45a"><path d="M 184.996094 348.851562 L 190.003906 348.851562 L 190.003906 353.863281 L 184.996094 353.863281 Z M 184.996094 348.851562 " clip-rule="nonzero"/></clipPath><clipPath id="40b3beb662"><path d="M 187.5 348.851562 C 186.117188 348.851562 184.996094 349.972656 184.996094 351.355469 C 184.996094 352.742188 186.117188 353.863281 187.5 353.863281 C 188.882812 353.863281 190.003906 352.742188 190.003906 351.355469 C 190.003906 349.972656 188.882812 348.851562 187.5 348.851562 Z M 187.5 348.851562 " clip-rule="nonzero"/></clipPath><clipPath id="f85a4ed0d6"><path d="M 0.996094 0.851562 L 6.003906 0.851562 L 6.003906 5.863281 L 0.996094 5.863281 Z M 0.996094 0.851562 " clip-rule="nonzero"/></clipPath><clipPath id="646d23e9ca"><path d="M 3.5 0.851562 C 2.117188 0.851562 0.996094 1.972656 0.996094 3.355469 C 0.996094 4.742188 2.117188 5.863281 3.5 5.863281 C 4.882812 5.863281 6.003906 4.742188 6.003906 3.355469 C 6.003906 1.972656 4.882812 0.851562 3.5 0.851562 Z M 3.5 0.851562 " clip-rule="nonzero"/></clipPath><clipPath id="7b8521e5de"><rect x="0" width="7" y="0" height="6"/></clipPath></defs><rect x="-37.5" width="450" fill="#ffffff" y="-37.499999" height="449.999989" fill-opacity="1"/><rect x="-37.5" width="450" fill="#ffffff" y="-37.499999" height="449.999989" fill-opacity="1"/><g clip-path="url(#a19984c6b8)"><path fill="#001079" d="M 241.910156 74.171875 C 241.910156 75.957031 241.824219 77.734375 241.648438 79.507812 C 241.472656 81.28125 241.214844 83.039062 240.867188 84.789062 C 240.519531 86.535156 240.085938 88.261719 239.566406 89.96875 C 239.050781 91.675781 238.453125 93.351562 237.769531 94.996094 C 237.085938 96.644531 236.328125 98.25 235.484375 99.824219 C 234.644531 101.394531 233.730469 102.921875 232.742188 104.402344 C 231.75 105.886719 230.691406 107.316406 229.558594 108.691406 C 228.429688 110.070312 227.234375 111.390625 225.972656 112.648438 C 224.714844 113.910156 223.394531 115.105469 222.015625 116.234375 C 220.640625 117.367188 219.210938 118.425781 217.726562 119.414062 C 216.246094 120.40625 214.71875 121.320312 213.148438 122.160156 C 211.578125 123 209.96875 123.761719 208.320312 124.445312 C 206.675781 125.125 205 125.726562 203.292969 126.242188 C 201.589844 126.761719 199.863281 127.191406 198.113281 127.539062 C 196.367188 127.886719 194.605469 128.148438 192.832031 128.324219 C 191.058594 128.5 189.28125 128.585938 187.5 128.585938 C 185.714844 128.585938 183.9375 128.5 182.164062 128.324219 C 180.390625 128.148438 178.628906 127.886719 176.882812 127.539062 C 175.136719 127.191406 173.410156 126.761719 171.703125 126.242188 C 169.996094 125.726562 168.320312 125.125 166.675781 124.445312 C 165.027344 123.761719 163.417969 123 161.847656 122.160156 C 160.277344 121.320312 158.75 120.40625 157.269531 119.414062 C 155.785156 118.425781 154.355469 117.367188 152.980469 116.234375 C 151.601562 115.105469 150.28125 113.910156 149.023438 112.648438 C 147.761719 111.390625 146.566406 110.070312 145.4375 108.691406 C 144.304688 107.316406 143.246094 105.886719 142.253906 104.402344 C 141.265625 102.921875 140.351562 101.394531 139.511719 99.824219 C 138.671875 98.25 137.910156 96.644531 137.226562 94.996094 C 136.546875 93.351562 135.945312 91.675781 135.429688 89.96875 C 134.910156 88.261719 134.476562 86.535156 134.128906 84.789062 C 133.78125 83.039062 133.523438 81.28125 133.347656 79.507812 C 133.171875 77.734375 133.085938 75.957031 133.085938 74.171875 C 133.085938 72.390625 133.171875 70.613281 133.347656 68.839844 C 133.523438 67.066406 133.78125 65.304688 134.128906 63.558594 C 134.476562 61.808594 134.910156 60.082031 135.429688 58.378906 C 135.945312 56.671875 136.546875 54.996094 137.226562 53.351562 C 137.910156 51.703125 138.671875 50.09375 139.511719 48.523438 C 140.351562 46.953125 141.265625 45.425781 142.253906 43.941406 C 143.246094 42.460938 144.304688 41.03125 145.4375 39.652344 C 146.566406 38.277344 147.761719 36.957031 149.023438 35.699219 C 150.28125 34.4375 151.601562 33.242188 152.980469 32.113281 C 154.355469 30.980469 155.785156 29.921875 157.269531 28.929688 C 158.75 27.941406 160.277344 27.023438 161.847656 26.183594 C 163.417969 25.34375 165.027344 24.585938 166.675781 23.902344 C 168.320312 23.21875 169.996094 22.621094 171.703125 22.101562 C 173.410156 21.585938 175.136719 21.152344 176.882812 20.804688 C 178.628906 20.457031 180.390625 20.195312 182.164062 20.023438 C 183.9375 19.847656 185.714844 19.761719 187.5 19.761719 C 189.28125 19.761719 191.058594 19.847656 192.832031 20.023438 C 194.605469 20.195312 196.367188 20.457031 198.113281 20.804688 C 199.863281 21.152344 201.589844 21.585938 203.292969 22.101562 C 205 22.621094 206.675781 23.21875 208.320312 23.902344 C 209.96875 24.585938 211.578125 25.34375 213.148438 26.183594 C 214.71875 27.023438 216.246094 27.941406 217.726562 28.929688 C 219.210938 29.921875 220.640625 30.980469 222.015625 32.113281 C 223.394531 33.242188 224.714844 34.4375 225.972656 35.699219 C 227.234375 36.957031 228.429688 38.277344 229.558594 39.652344 C 230.691406 41.03125 231.75 42.460938 232.742188 43.941406 C 233.730469 45.425781 234.644531 46.953125 235.484375 48.523438 C 236.328125 50.09375 237.085938 51.703125 237.769531 53.351562 C 238.453125 54.996094 239.050781 56.671875 239.566406 58.378906 C 240.085938 60.082031 240.519531 61.808594 240.867188 63.558594 C 241.214844 65.304688 241.472656 67.066406 241.648438 68.839844 C 241.824219 70.613281 241.910156 72.390625 241.910156 74.171875 Z M 241.910156 74.171875 " fill-opacity="1" fill-rule="nonzero"/></g><path fill="#001079" d="M 192.730469 200.578125 C 202.058594 196.285156 232.183594 183.066406 269.6875 173.472656 C 248.820312 152.070312 219.703125 138.785156 187.5 138.785156 C 155.292969 138.785156 126.109375 152.070312 105.308594 173.472656 C 142.8125 183.066406 172.9375 196.285156 182.265625 200.578125 Z M 192.730469 200.578125 " fill-opacity="1" fill-rule="nonzero"/><g clip-path="url(#1d2626c7f8)"><path fill="#001079" d="M 304.375 229.832031 L 282.636719 229.832031 C 272.507812 229.832031 264.320312 238.015625 264.320312 248.148438 C 264.320312 258.277344 272.507812 266.464844 282.636719 266.464844 L 304.375 266.464844 C 310.011719 266.464844 314.640625 261.902344 314.640625 256.199219 L 314.640625 240.027344 C 314.574219 234.394531 310.011719 229.832031 304.375 229.832031 Z M 304.375 229.832031 " fill-opacity="1" fill-rule="nonzero"/></g><g clip-path="url(#5213d2720d)"><path fill="#001079" d="M 254.121094 248.617188 C 253.855469 232.648438 267.207031 219.566406 283.175781 219.566406 L 299.746094 219.566406 L 299.746094 181.457031 C 299.746094 179.308594 297.800781 177.699219 295.71875 178.101562 C 245.332031 187.628906 201.183594 207.890625 195.078125 210.777344 L 180.050781 210.777344 C 173.945312 207.890625 129.796875 187.628906 79.410156 178.101562 C 77.332031 177.699219 75.382812 179.308594 75.382812 181.457031 L 75.382812 219.566406 L 91.957031 219.566406 C 107.925781 219.566406 121.277344 232.648438 121.007812 248.617188 C 120.738281 264.117188 108.058594 276.660156 92.492188 276.660156 L 75.25 276.660156 L 75.25 314.769531 C 75.25 316.382812 76.390625 317.789062 78 318.125 C 125.636719 327.117188 167.636719 345.902344 176.09375 349.859375 C 177.097656 352.949219 179.984375 355.230469 183.40625 355.230469 L 191.390625 355.230469 C 194.8125 355.230469 197.761719 352.949219 198.703125 349.859375 C 207.15625 345.902344 249.089844 327.117188 296.792969 318.125 C 298.402344 317.789062 299.542969 316.382812 299.542969 314.769531 L 299.542969 276.660156 L 282.503906 276.660156 C 267.070312 276.660156 254.390625 264.117188 254.121094 248.617188 Z M 254.121094 248.617188 " fill-opacity="1" fill-rule="nonzero"/></g><g clip-path="url(#5d47b2b1c5)"><path fill="#001079" d="M 110.609375 248.148438 C 110.609375 238.015625 102.421875 229.832031 92.292969 229.832031 L 70.621094 229.832031 C 64.984375 229.832031 60.355469 234.394531 60.355469 240.097656 L 60.355469 256.265625 C 60.355469 261.902344 64.917969 266.53125 70.621094 266.53125 L 92.359375 266.53125 C 102.421875 266.464844 110.609375 258.277344 110.609375 248.148438 Z M 110.609375 248.148438 " fill-opacity="1" fill-rule="nonzero"/></g><g clip-path="url(#d151daf45a)"><g clip-path="url(#40b3beb662)"><g transform="matrix(1, 0, 0, 1, 184, 348)"><g clip-path="url(#7b8521e5de)"><g clip-path="url(#f85a4ed0d6)"><g clip-path="url(#646d23e9ca)"><path fill="#ffffff" d="M 0.996094 0.851562 L 6.003906 0.851562 L 6.003906 5.863281 L 0.996094 5.863281 Z M 0.996094 0.851562 " fill-opacity="1" fill-rule="nonzero"/></g></g></g></g></g></g></svg>