<svg width="32" height="32" viewBox="0 0 32 32" fill="none" xmlns="http://www.w3.org/2000/svg">
<path d="M19.9998 24V25C19.9998 26.1046 19.6093 27.0474 18.8282 27.8284C18.0472 28.6095 17.1044 29 15.9998 29C14.8953 29 13.9524 28.6095 13.1714 27.8284C12.3903 27.0474 11.9998 26.1046 11.9998 25V24M26.7298 21.9644C25.1248 20 23.9917 19 23.9917 13.5844C23.9917 8.625 21.4592 6.85813 19.3748 6C19.0979 5.88625 18.8373 5.625 18.7529 5.34062C18.3873 4.09625 17.3623 3 15.9998 3C14.6373 3 13.6117 4.09688 13.2498 5.34188C13.1654 5.62937 12.9048 5.88625 12.6279 6C10.5411 6.85938 8.01107 8.62 8.01107 13.5844C8.00795 19 6.87482 20 5.26982 21.9644C4.60482 22.7781 5.18732 24 6.35045 24H25.6554C26.8123 24 27.3911 22.7744 26.7298 21.9644Z" stroke="white" stroke-width="2" stroke-linecap="round" stroke-linejoin="round"/>
</svg>
