<?xml version="1.0" encoding="utf-8" ?>
<svg xmlns="http://www.w3.org/2000/svg" xmlns:xlink="http://www.w3.org/1999/xlink" width="32" height="32" viewBox="0 0 32 32">
	<defs>
		<clipPath id="clipPath2057791098">
			<path d="M0 0L32 0L32 32L0 32L0 0Z" fill-rule="nonzero" transform="matrix(1 0 0 1 0 0)"/>
		</clipPath>
	</defs>
	<g clip-path="url(#clipPath2057791098)">
		<path d="M14 3.48504Q12.917 1.79726 10.9113 0.765827Q10.7776 0.697064 10.6398 0.63122Q10.2204 0.43084 9.75527 0.255068Q6.53769 -0.9609 1.13247 -0.99924Q1.0927 -0.999522 1.0528 -0.99974Q1.0283 -0.999875 1.00378 -0.999985Q0.172498 -1.00312 -0.41531 -0.415311Q-1.00312 0.172498 -0.999992 1.00001L-0.999992 18.8794Q-0.999992 19.724 -0.492958 20.3195Q-0.217644 20.6429 0.163048 20.8192Q0.553552 21 1.00001 21Q6.44292 21 9.45842 22.0534Q10.7581 22.5075 11.7128 23.1875Q12.5434 23.7792 13.2188 24.6243Q13.2884 24.7113 13.3753 24.7809Q13.5307 24.9051 13.7217 24.9605Q13.9128 25.0159 14.1105 24.9939Q14.3082 24.9719 14.4824 24.876Q14.6566 24.78 14.7809 24.6247Q15.4607 23.7749 16.2921 23.1824Q17.2467 22.5022 18.5454 22.0491Q21.5528 21 27 21Q27.8284 21 28.4142 20.4142Q29 19.8284 29 19L29 1.00378Q29.0031 0.172499 28.4153 -0.41531Q27.8275 -1.00312 26.9955 -0.99998Q20.7154 -0.971819 17.3602 0.63122Q15.1552 1.68474 14 3.48504ZM13 6.12913L13 21.6506Q12.937 21.604 12.8732 21.5586Q11.6865 20.7133 10.118 20.1653Q6.78695 19.0017 1.01644 19Q1.00001 18.9599 1.00001 18.8794L1.00001 1.00002Q6.82823 1.02669 9.77758 2.43583Q11.132 3.08292 11.9364 4.04413Q12.6707 4.92157 13 6.12913ZM26.2868 1.00867Q26.6378 1.00168 27 1.00002L27 19Q21.214 19 17.8866 20.1607Q16.3185 20.7078 15.1314 21.5537Q15.0653 21.6008 15 21.6491L15 6.12913Q15.3293 4.92157 16.0636 4.04413Q16.8681 3.08292 18.2224 2.43583Q20.9885 1.11425 26.2868 1.00867Z" fill-rule="evenodd" transform="matrix(1 0 0 1 1.99999 3.99999)" fill="rgb(55, 65, 81)"/>
	</g>
</svg>
