<svg xmlns="http://www.w3.org/2000/svg" xmlns:xlink="http://www.w3.org/1999/xlink" width="500" zoomAndPan="magnify" viewBox="0 0 375 374.999991" height="500" preserveAspectRatio="xMidYMid meet" version="1.0"><defs><clipPath id="90c4e648bf"><path d="M 184.996094 348.851562 L 190.003906 348.851562 L 190.003906 353.863281 L 184.996094 353.863281 Z M 184.996094 348.851562 " clip-rule="nonzero"/></clipPath><clipPath id="a35edc5829"><path d="M 187.5 348.851562 C 186.117188 348.851562 184.996094 349.972656 184.996094 351.355469 C 184.996094 352.742188 186.117188 353.863281 187.5 353.863281 C 188.882812 353.863281 190.003906 352.742188 190.003906 351.355469 C 190.003906 349.972656 188.882812 348.851562 187.5 348.851562 Z M 187.5 348.851562 " clip-rule="nonzero"/></clipPath><clipPath id="81a314e505"><path d="M 0.996094 0.851562 L 6.003906 0.851562 L 6.003906 5.863281 L 0.996094 5.863281 Z M 0.996094 0.851562 " clip-rule="nonzero"/></clipPath><clipPath id="7c10e96470"><path d="M 3.5 0.851562 C 2.117188 0.851562 0.996094 1.972656 0.996094 3.355469 C 0.996094 4.742188 2.117188 5.863281 3.5 5.863281 C 4.882812 5.863281 6.003906 4.742188 6.003906 3.355469 C 6.003906 1.972656 4.882812 0.851562 3.5 0.851562 Z M 3.5 0.851562 " clip-rule="nonzero"/></clipPath><clipPath id="c1159977ca"><rect x="0" width="7" y="0" height="6"/></clipPath><clipPath id="87947b27b5"><path d="M 37.5 73.5 L 337.5 73.5 L 337.5 301 L 37.5 301 Z M 37.5 73.5 " clip-rule="nonzero"/></clipPath></defs><g clip-path="url(#90c4e648bf)"><g clip-path="url(#a35edc5829)"><g transform="matrix(1, 0, 0, 1, 184, 348)"><g clip-path="url(#c1159977ca)"><g clip-path="url(#81a314e505)"><g clip-path="url(#7c10e96470)"><path fill="#ffffff" d="M 0.996094 0.851562 L 6.003906 0.851562 L 6.003906 5.863281 L 0.996094 5.863281 Z M 0.996094 0.851562 " fill-opacity="1" fill-rule="nonzero"/></g></g></g></g></g></g><g clip-path="url(#87947b27b5)"><path fill="#000000" d="M 337.5 280.480469 L 337.5 99.425781 C 333.882812 99.425781 330.347656 99.476562 326.855469 99.558594 L 326.855469 87.035156 L 323.363281 87.035156 C 319.1875 87.035156 315.136719 87.125 311.152344 87.257812 L 311.152344 73.90625 L 307.65625 73.90625 C 228.875 73.90625 188.039062 105.644531 187.625 105.96875 L 187.496094 106.070312 L 187.367188 105.964844 C 186.960938 105.644531 146.117188 73.90625 67.34375 73.90625 L 63.851562 73.90625 L 63.851562 87.257812 C 59.863281 87.125 55.808594 87.035156 51.632812 87.035156 L 48.136719 87.035156 L 48.136719 99.5625 C 44.648438 99.480469 41.117188 99.425781 37.5 99.425781 L 37.5 280.480469 C 136.5 280.480469 187.5 300.996094 187.5 300.996094 C 187.5 300.996094 238.5 280.484375 337.5 280.480469 Z M 55.128906 93.667969 C 58.089844 93.695312 60.988281 93.769531 63.851562 93.867188 L 63.851562 255.429688 C 63.835938 255.882812 63.914062 256.292969 64.050781 256.542969 C 64.652344 257.835938 65.011719 257.816406 65.179688 258.023438 C 65.726562 258.402344 65.652344 258.304688 65.738281 258.367188 C 65.773438 258.382812 65.78125 258.382812 65.78125 258.382812 L 70.839844 260.78125 L 70.839844 258.757812 C 107.488281 259.207031 135.28125 266.6875 154.054688 274.128906 C 157.539062 275.507812 160.695312 276.890625 163.554688 278.226562 C 142.097656 272.503906 105.828125 265.5625 55.128906 265.253906 Z M 154.054688 95.914062 C 163.722656 99.753906 170.996094 103.582031 175.816406 106.429688 C 178.226562 107.859375 180.03125 109.035156 181.21875 109.851562 C 181.371094 109.953125 181.511719 110.054688 181.648438 110.148438 L 181.648438 280.316406 C 168.136719 271.953125 130.816406 252.859375 70.839844 252.140625 L 70.839844 80.546875 C 107.488281 80.996094 135.28125 88.476562 154.054688 95.914062 Z M 304.164062 80.546875 L 304.164062 252.140625 C 244.191406 252.859375 206.863281 271.945312 193.351562 280.3125 L 193.351562 110.148438 C 200.542969 105.132812 237.949219 81.363281 304.164062 80.546875 Z M 319.871094 265.253906 C 269.152344 265.5625 232.882812 272.507812 211.425781 278.230469 C 230.039062 269.539062 261.980469 258.867188 306.835938 258.734375 L 311.148438 260.777344 L 311.148438 93.867188 C 314.011719 93.773438 316.910156 93.695312 319.871094 93.667969 Z M 319.871094 265.253906 " fill-opacity="1" fill-rule="nonzero"/></g></svg>