<svg xmlns="http://www.w3.org/2000/svg" xmlns:xlink="http://www.w3.org/1999/xlink" width="500" zoomAndPan="magnify" viewBox="0 0 375 374.999991" height="500" preserveAspectRatio="xMidYMid meet" version="1.0"><defs><clipPath id="2b23914c33"><path d="M 102.292969 85 L 273 85 L 273 305 L 102.292969 305 Z M 102.292969 85 " clip-rule="nonzero"/></clipPath></defs><rect x="-37.5" width="450" fill="#ffffff" y="-37.499999" height="449.999989" fill-opacity="1"/><rect x="-37.5" width="450" fill="#ffffff" y="-37.499999" height="449.999989" fill-opacity="1"/><g clip-path="url(#2b23914c33)"><path fill="#000000" d="M 261.746094 304.714844 L 112.582031 304.714844 C 111.90625 304.714844 111.234375 304.648438 110.574219 304.515625 C 109.910156 304.386719 109.269531 304.191406 108.644531 303.929688 C 108.023438 303.671875 107.429688 303.355469 106.867188 302.980469 C 106.304688 302.605469 105.789062 302.179688 105.308594 301.703125 C 104.832031 301.226562 104.40625 300.707031 104.03125 300.148438 C 103.65625 299.585938 103.339844 298.996094 103.078125 298.371094 C 102.820312 297.75 102.625 297.109375 102.492188 296.445312 C 102.359375 295.785156 102.292969 295.117188 102.292969 294.441406 L 102.292969 95.601562 C 102.292969 94.925781 102.359375 94.257812 102.492188 93.597656 C 102.625 92.933594 102.820312 92.292969 103.078125 91.671875 C 103.339844 91.046875 103.65625 90.457031 104.03125 89.894531 C 104.40625 89.335938 104.832031 88.816406 105.308594 88.339844 C 105.789062 87.863281 106.304688 87.4375 106.867188 87.0625 C 107.429688 86.6875 108.023438 86.371094 108.644531 86.113281 C 109.269531 85.851562 109.910156 85.65625 110.574219 85.527344 C 111.234375 85.394531 111.90625 85.328125 112.582031 85.328125 L 261.746094 85.328125 C 262.421875 85.328125 263.089844 85.394531 263.753906 85.527344 C 264.414062 85.65625 265.058594 85.851562 265.679688 86.113281 C 266.304688 86.371094 266.898438 86.6875 267.457031 87.0625 C 268.019531 87.4375 268.539062 87.863281 269.015625 88.339844 C 269.492188 88.816406 269.921875 89.335938 270.296875 89.894531 C 270.671875 90.457031 270.988281 91.046875 271.246094 91.671875 C 271.503906 92.292969 271.699219 92.9375 271.832031 93.597656 C 271.964844 94.257812 272.03125 94.925781 272.03125 95.601562 L 272.03125 224.558594 C 272.03125 225.230469 271.792969 225.804688 271.316406 226.28125 L 243.347656 254.21875 L 254.339844 265.210938 L 267.867188 251.695312 C 268.21875 251.347656 268.636719 251.125 269.121094 251.027344 C 269.605469 250.929688 270.074219 250.976562 270.53125 251.167969 C 270.988281 251.355469 271.351562 251.65625 271.628906 252.066406 C 271.902344 252.476562 272.039062 252.929688 272.039062 253.421875 L 272.039062 294.441406 C 272.039062 295.117188 271.972656 295.785156 271.839844 296.445312 C 271.707031 297.109375 271.511719 297.75 271.253906 298.375 C 270.992188 298.996094 270.675781 299.589844 270.300781 300.148438 C 269.925781 300.710938 269.5 301.230469 269.019531 301.707031 C 268.542969 302.183594 268.023438 302.609375 267.460938 302.984375 C 266.898438 303.359375 266.308594 303.675781 265.683594 303.933594 C 265.058594 304.191406 264.414062 304.386719 263.753906 304.519531 C 263.089844 304.648438 262.421875 304.714844 261.746094 304.714844 Z M 112.582031 90.199219 C 112.226562 90.203125 111.875 90.234375 111.527344 90.304688 C 111.179688 90.375 110.839844 90.476562 110.515625 90.613281 C 110.1875 90.75 109.875 90.914062 109.582031 91.113281 C 109.285156 91.308594 109.011719 91.53125 108.761719 91.78125 C 108.511719 92.03125 108.289062 92.304688 108.089844 92.597656 C 107.894531 92.894531 107.726562 93.203125 107.589844 93.53125 C 107.457031 93.859375 107.351562 94.195312 107.285156 94.542969 C 107.214844 94.890625 107.179688 95.242188 107.179688 95.59375 L 107.179688 294.4375 C 107.179688 294.792969 107.214844 295.144531 107.285156 295.488281 C 107.351562 295.835938 107.457031 296.175781 107.589844 296.5 C 107.726562 296.828125 107.894531 297.140625 108.089844 297.433594 C 108.289062 297.726562 108.511719 298 108.761719 298.25 C 109.011719 298.5 109.285156 298.726562 109.582031 298.921875 C 109.875 299.117188 110.1875 299.285156 110.515625 299.421875 C 110.839844 299.554688 111.179688 299.660156 111.527344 299.726562 C 111.875 299.796875 112.226562 299.832031 112.582031 299.832031 L 261.746094 299.832031 C 262.101562 299.832031 262.453125 299.796875 262.800781 299.726562 C 263.148438 299.660156 263.484375 299.554688 263.8125 299.421875 C 264.140625 299.285156 264.449219 299.117188 264.746094 298.921875 C 265.039062 298.726562 265.3125 298.5 265.5625 298.25 C 265.8125 298 266.039062 297.726562 266.234375 297.433594 C 266.433594 297.140625 266.597656 296.828125 266.734375 296.5 C 266.871094 296.175781 266.972656 295.835938 267.042969 295.488281 C 267.109375 295.144531 267.144531 294.792969 267.144531 294.4375 L 267.144531 259.304688 L 256.058594 270.382812 C 255.582031 270.859375 255.007812 271.097656 254.332031 271.097656 C 253.65625 271.097656 253.082031 270.859375 252.601562 270.382812 L 238.164062 255.941406 C 237.933594 255.710938 237.757812 255.449219 237.632812 255.148438 C 237.511719 254.851562 237.449219 254.539062 237.449219 254.21875 C 237.449219 253.894531 237.511719 253.582031 237.632812 253.285156 C 237.757812 252.984375 237.933594 252.722656 238.164062 252.492188 L 267.144531 223.546875 L 267.144531 95.59375 C 267.144531 95.242188 267.109375 94.890625 267.042969 94.542969 C 266.972656 94.195312 266.871094 93.859375 266.734375 93.53125 C 266.597656 93.203125 266.433594 92.894531 266.234375 92.601562 C 266.039062 92.304688 265.8125 92.03125 265.5625 91.78125 C 265.3125 91.53125 265.039062 91.308594 264.746094 91.113281 C 264.449219 90.914062 264.140625 90.75 263.8125 90.613281 C 263.484375 90.476562 263.148438 90.375 262.800781 90.304688 C 262.453125 90.234375 262.101562 90.203125 261.746094 90.199219 Z M 269.589844 224.558594 Z M 269.589844 224.558594 " fill-opacity="1" fill-rule="nonzero"/></g><path fill="#000000" d="M 132.007812 125.183594 C 131.332031 125.183594 130.757812 124.945312 130.28125 124.46875 L 125.925781 120.117188 C 125.691406 119.890625 125.507812 119.625 125.378906 119.324219 C 125.25 119.023438 125.183594 118.710938 125.179688 118.382812 C 125.175781 118.058594 125.238281 117.742188 125.363281 117.4375 C 125.484375 117.136719 125.664062 116.867188 125.894531 116.636719 C 126.128906 116.40625 126.394531 116.230469 126.699219 116.105469 C 127 115.980469 127.316406 115.921875 127.644531 115.921875 C 127.972656 115.925781 128.285156 115.992188 128.585938 116.121094 C 128.886719 116.25 129.152344 116.433594 129.378906 116.667969 L 132.007812 119.289062 L 138.691406 112.617188 C 138.921875 112.394531 139.1875 112.222656 139.484375 112.105469 C 139.78125 111.984375 140.089844 111.929688 140.410156 111.929688 C 140.730469 111.933594 141.039062 111.996094 141.335938 112.121094 C 141.628906 112.242188 141.890625 112.417969 142.117188 112.644531 C 142.34375 112.871094 142.519531 113.132812 142.644531 113.425781 C 142.765625 113.722656 142.828125 114.027344 142.832031 114.347656 C 142.835938 114.667969 142.777344 114.976562 142.660156 115.273438 C 142.539062 115.570312 142.371094 115.835938 142.148438 116.066406 L 133.734375 124.46875 C 133.257812 124.945312 132.679688 125.183594 132.007812 125.183594 Z M 132.007812 125.183594 " fill-opacity="1" fill-rule="nonzero"/><path fill="#000000" d="M 144.78125 133.816406 L 123.300781 133.816406 C 123.003906 133.816406 122.707031 133.785156 122.414062 133.726562 C 122.121094 133.667969 121.835938 133.582031 121.558594 133.46875 C 121.28125 133.351562 121.019531 133.210938 120.769531 133.046875 C 120.519531 132.878906 120.289062 132.691406 120.078125 132.480469 C 119.867188 132.269531 119.679688 132.039062 119.511719 131.789062 C 119.34375 131.542969 119.203125 131.28125 119.089844 131.003906 C 118.976562 130.726562 118.886719 130.441406 118.828125 130.148438 C 118.769531 129.855469 118.742188 129.5625 118.742188 129.261719 L 118.742188 107.824219 C 118.742188 107.523438 118.773438 107.230469 118.832031 106.9375 C 118.890625 106.644531 118.976562 106.359375 119.09375 106.085938 C 119.207031 105.808594 119.347656 105.546875 119.515625 105.300781 C 119.679688 105.050781 119.871094 104.824219 120.082031 104.613281 C 120.292969 104.402344 120.523438 104.214844 120.773438 104.046875 C 121.023438 103.882812 121.285156 103.742188 121.558594 103.628906 C 121.835938 103.515625 122.121094 103.429688 122.414062 103.371094 C 122.707031 103.3125 123.003906 103.28125 123.300781 103.28125 L 144.800781 103.28125 C 145.097656 103.285156 145.394531 103.3125 145.6875 103.371094 C 145.980469 103.429688 146.265625 103.515625 146.542969 103.628906 C 146.820312 103.746094 147.082031 103.886719 147.332031 104.050781 C 147.578125 104.21875 147.808594 104.40625 148.019531 104.617188 C 148.230469 104.828125 148.421875 105.058594 148.585938 105.304688 C 148.753906 105.554688 148.894531 105.816406 149.007812 106.09375 C 149.121094 106.367188 149.210938 106.652344 149.269531 106.945312 C 149.328125 107.238281 149.355469 107.535156 149.355469 107.832031 L 149.355469 129.273438 C 149.355469 129.570312 149.324219 129.867188 149.265625 130.160156 C 149.207031 130.453125 149.121094 130.738281 149.003906 131.011719 C 148.886719 131.289062 148.746094 131.550781 148.582031 131.800781 C 148.414062 132.046875 148.222656 132.277344 148.011719 132.488281 C 147.800781 132.699219 147.566406 132.886719 147.320312 133.054688 C 147.070312 133.21875 146.804688 133.359375 146.527344 133.472656 C 146.253906 133.585938 145.96875 133.671875 145.671875 133.730469 C 145.378906 133.785156 145.082031 133.816406 144.78125 133.816406 Z M 123.621094 128.933594 L 144.453125 128.933594 L 144.453125 108.164062 L 123.621094 108.164062 Z M 123.621094 128.933594 " fill-opacity="1" fill-rule="nonzero"/><path fill="#000000" d="M 253.144531 114.53125 L 163.414062 114.53125 C 163.089844 114.53125 162.78125 114.472656 162.480469 114.347656 C 162.179688 114.222656 161.917969 114.046875 161.6875 113.820312 C 161.460938 113.589844 161.28125 113.324219 161.160156 113.027344 C 161.035156 112.726562 160.972656 112.417969 160.972656 112.09375 C 160.972656 111.769531 161.035156 111.457031 161.160156 111.160156 C 161.28125 110.859375 161.460938 110.597656 161.6875 110.367188 C 161.917969 110.140625 162.179688 109.964844 162.480469 109.839844 C 162.78125 109.714844 163.089844 109.652344 163.414062 109.652344 L 253.144531 109.652344 C 253.46875 109.652344 253.78125 109.714844 254.078125 109.839844 C 254.378906 109.964844 254.644531 110.140625 254.871094 110.367188 C 255.101562 110.597656 255.277344 110.859375 255.402344 111.160156 C 255.527344 111.457031 255.585938 111.769531 255.585938 112.09375 C 255.585938 112.417969 255.527344 112.726562 255.402344 113.027344 C 255.277344 113.324219 255.101562 113.589844 254.871094 113.820312 C 254.644531 114.046875 254.378906 114.222656 254.078125 114.347656 C 253.78125 114.472656 253.46875 114.53125 253.144531 114.53125 Z M 253.144531 114.53125 " fill-opacity="1" fill-rule="nonzero"/><path fill="#000000" d="M 253.144531 127.4375 L 163.414062 127.4375 C 163.089844 127.4375 162.78125 127.375 162.480469 127.25 C 162.179688 127.128906 161.917969 126.953125 161.6875 126.722656 C 161.460938 126.492188 161.28125 126.230469 161.160156 125.929688 C 161.035156 125.632812 160.972656 125.320312 160.972656 124.996094 C 160.972656 124.671875 161.035156 124.363281 161.160156 124.0625 C 161.28125 123.765625 161.460938 123.5 161.6875 123.273438 C 161.917969 123.042969 162.179688 122.867188 162.480469 122.742188 C 162.78125 122.621094 163.089844 122.558594 163.414062 122.558594 L 253.144531 122.558594 C 253.46875 122.558594 253.78125 122.621094 254.078125 122.742188 C 254.378906 122.867188 254.644531 123.042969 254.871094 123.273438 C 255.101562 123.5 255.277344 123.765625 255.402344 124.0625 C 255.527344 124.363281 255.585938 124.671875 255.585938 124.996094 C 255.585938 125.320312 255.527344 125.632812 255.402344 125.929688 C 255.277344 126.230469 255.101562 126.492188 254.871094 126.722656 C 254.644531 126.953125 254.378906 127.128906 254.078125 127.25 C 253.78125 127.375 253.46875 127.4375 253.144531 127.4375 Z M 253.144531 127.4375 " fill-opacity="1" fill-rule="nonzero"/><path fill="#000000" d="M 132.007812 175.011719 C 131.332031 175.011719 130.757812 174.773438 130.28125 174.296875 L 125.925781 169.949219 C 125.691406 169.722656 125.507812 169.460938 125.378906 169.160156 C 125.25 168.859375 125.183594 168.542969 125.179688 168.214844 C 125.175781 167.890625 125.238281 167.574219 125.363281 167.273438 C 125.484375 166.96875 125.664062 166.703125 125.894531 166.46875 C 126.128906 166.238281 126.394531 166.0625 126.699219 165.9375 C 127 165.8125 127.316406 165.753906 127.644531 165.753906 C 127.972656 165.757812 128.285156 165.824219 128.585938 165.953125 C 128.886719 166.082031 129.152344 166.265625 129.378906 166.5 L 132.007812 169.125 L 138.691406 162.4375 C 138.921875 162.210938 139.1875 162.035156 139.484375 161.910156 C 139.785156 161.785156 140.097656 161.722656 140.421875 161.722656 C 140.746094 161.722656 141.054688 161.785156 141.355469 161.910156 C 141.65625 162.035156 141.917969 162.210938 142.148438 162.4375 C 142.378906 162.667969 142.554688 162.933594 142.679688 163.230469 C 142.800781 163.53125 142.863281 163.839844 142.863281 164.164062 C 142.863281 164.488281 142.800781 164.800781 142.675781 165.097656 C 142.554688 165.398438 142.375 165.660156 142.148438 165.890625 L 133.734375 174.296875 C 133.257812 174.773438 132.679688 175.011719 132.007812 175.011719 Z M 132.007812 175.011719 " fill-opacity="1" fill-rule="nonzero"/><path fill="#000000" d="M 144.78125 183.636719 L 123.300781 183.636719 C 123.003906 183.636719 122.707031 183.609375 122.414062 183.550781 C 122.121094 183.492188 121.835938 183.40625 121.558594 183.292969 C 121.28125 183.175781 121.019531 183.035156 120.769531 182.871094 C 120.519531 182.703125 120.289062 182.515625 120.078125 182.304688 C 119.867188 182.09375 119.679688 181.863281 119.511719 181.617188 C 119.34375 181.367188 119.203125 181.105469 119.089844 180.828125 C 118.976562 180.554688 118.886719 180.269531 118.828125 179.976562 C 118.769531 179.683594 118.742188 179.386719 118.742188 179.085938 L 118.742188 157.648438 C 118.742188 157.351562 118.769531 157.054688 118.828125 156.761719 C 118.886719 156.46875 118.976562 156.183594 119.089844 155.90625 C 119.203125 155.628906 119.34375 155.367188 119.511719 155.121094 C 119.679688 154.871094 119.867188 154.640625 120.078125 154.429688 C 120.289062 154.21875 120.519531 154.03125 120.769531 153.863281 C 121.019531 153.699219 121.28125 153.558594 121.558594 153.445312 C 121.835938 153.328125 122.121094 153.242188 122.414062 153.183594 C 122.707031 153.125 123.003906 153.097656 123.300781 153.097656 L 144.800781 153.097656 C 145.097656 153.097656 145.394531 153.125 145.6875 153.183594 C 145.980469 153.242188 146.265625 153.332031 146.542969 153.445312 C 146.820312 153.558594 147.082031 153.699219 147.332031 153.867188 C 147.578125 154.03125 147.808594 154.21875 148.019531 154.433594 C 148.230469 154.644531 148.421875 154.875 148.585938 155.121094 C 148.753906 155.371094 148.894531 155.632812 149.007812 155.90625 C 149.121094 156.183594 149.210938 156.46875 149.269531 156.761719 C 149.328125 157.054688 149.355469 157.351562 149.355469 157.648438 L 149.355469 179.085938 C 149.355469 179.386719 149.328125 179.683594 149.269531 179.976562 C 149.207031 180.269531 149.121094 180.554688 149.007812 180.832031 C 148.890625 181.109375 148.75 181.371094 148.582031 181.621094 C 148.417969 181.867188 148.226562 182.097656 148.015625 182.308594 C 147.800781 182.519531 147.570312 182.710938 147.320312 182.875 C 147.070312 183.039062 146.808594 183.179688 146.53125 183.292969 C 146.253906 183.410156 145.96875 183.496094 145.675781 183.550781 C 145.378906 183.609375 145.082031 183.636719 144.78125 183.636719 Z M 123.621094 178.757812 L 144.453125 178.757812 L 144.453125 157.976562 L 123.621094 157.976562 Z M 123.621094 178.757812 " fill-opacity="1" fill-rule="nonzero"/><path fill="#000000" d="M 253.144531 164.359375 L 163.414062 164.359375 C 163.089844 164.359375 162.78125 164.296875 162.480469 164.171875 C 162.179688 164.046875 161.917969 163.871094 161.6875 163.644531 C 161.460938 163.414062 161.28125 163.152344 161.160156 162.851562 C 161.035156 162.554688 160.972656 162.242188 160.972656 161.917969 C 160.972656 161.59375 161.035156 161.285156 161.160156 160.984375 C 161.28125 160.6875 161.460938 160.421875 161.6875 160.191406 C 161.917969 159.964844 162.179688 159.789062 162.480469 159.664062 C 162.78125 159.539062 163.089844 159.480469 163.414062 159.480469 L 253.144531 159.480469 C 253.46875 159.480469 253.78125 159.539062 254.078125 159.664062 C 254.378906 159.789062 254.644531 159.964844 254.871094 160.191406 C 255.101562 160.421875 255.277344 160.6875 255.402344 160.984375 C 255.527344 161.285156 255.585938 161.59375 255.585938 161.917969 C 255.585938 162.242188 255.527344 162.554688 255.402344 162.851562 C 255.277344 163.152344 255.101562 163.414062 254.871094 163.644531 C 254.644531 163.871094 254.378906 164.046875 254.078125 164.171875 C 253.78125 164.296875 253.46875 164.359375 253.144531 164.359375 Z M 253.144531 164.359375 " fill-opacity="1" fill-rule="nonzero"/><path fill="#000000" d="M 253.144531 177.257812 L 163.414062 177.257812 C 163.089844 177.257812 162.78125 177.195312 162.480469 177.070312 C 162.179688 176.949219 161.917969 176.773438 161.6875 176.542969 C 161.460938 176.3125 161.28125 176.050781 161.160156 175.75 C 161.035156 175.453125 160.972656 175.140625 160.972656 174.816406 C 160.972656 174.492188 161.035156 174.183594 161.160156 173.882812 C 161.28125 173.585938 161.460938 173.320312 161.6875 173.09375 C 161.917969 172.863281 162.179688 172.6875 162.480469 172.5625 C 162.78125 172.441406 163.089844 172.378906 163.414062 172.378906 L 253.144531 172.378906 C 253.46875 172.378906 253.78125 172.441406 254.078125 172.5625 C 254.378906 172.6875 254.644531 172.863281 254.871094 173.09375 C 255.101562 173.320312 255.277344 173.585938 255.402344 173.882812 C 255.527344 174.183594 255.585938 174.492188 255.585938 174.816406 C 255.585938 175.140625 255.527344 175.453125 255.402344 175.75 C 255.277344 176.050781 255.101562 176.3125 254.871094 176.542969 C 254.644531 176.773438 254.378906 176.949219 254.078125 177.070312 C 253.78125 177.195312 253.46875 177.257812 253.144531 177.257812 Z M 253.144531 177.257812 " fill-opacity="1" fill-rule="nonzero"/><path fill="#000000" d="M 132.007812 224.835938 C 131.332031 224.835938 130.757812 224.597656 130.28125 224.121094 L 125.925781 219.773438 C 125.691406 219.546875 125.507812 219.28125 125.378906 218.980469 C 125.25 218.679688 125.183594 218.367188 125.179688 218.039062 C 125.175781 217.710938 125.238281 217.398438 125.363281 217.09375 C 125.484375 216.792969 125.664062 216.523438 125.894531 216.292969 C 126.128906 216.0625 126.394531 215.882812 126.699219 215.761719 C 127 215.636719 127.316406 215.574219 127.644531 215.578125 C 127.972656 215.582031 128.285156 215.648438 128.585938 215.777344 C 128.886719 215.90625 129.152344 216.089844 129.378906 216.324219 L 132.007812 218.945312 L 138.691406 212.261719 C 138.921875 212.042969 139.1875 211.871094 139.484375 211.753906 C 139.78125 211.632812 140.089844 211.574219 140.410156 211.578125 C 140.730469 211.582031 141.039062 211.644531 141.335938 211.769531 C 141.628906 211.890625 141.890625 212.066406 142.117188 212.292969 C 142.34375 212.519531 142.519531 212.78125 142.644531 213.074219 C 142.765625 213.371094 142.832031 213.675781 142.832031 213.996094 C 142.835938 214.316406 142.777344 214.625 142.660156 214.921875 C 142.539062 215.21875 142.371094 215.484375 142.148438 215.714844 L 133.734375 224.121094 C 133.257812 224.597656 132.679688 224.835938 132.007812 224.835938 Z M 132.007812 224.835938 " fill-opacity="1" fill-rule="nonzero"/><path fill="#000000" d="M 144.78125 233.460938 L 123.300781 233.460938 C 123.003906 233.460938 122.707031 233.433594 122.414062 233.375 C 122.121094 233.316406 121.835938 233.230469 121.558594 233.117188 C 121.28125 233 121.019531 232.863281 120.769531 232.695312 C 120.523438 232.53125 120.292969 232.339844 120.078125 232.128906 C 119.867188 231.917969 119.679688 231.6875 119.511719 231.441406 C 119.347656 231.191406 119.207031 230.929688 119.089844 230.652344 C 118.976562 230.378906 118.890625 230.09375 118.832031 229.800781 C 118.769531 229.507812 118.742188 229.210938 118.742188 228.914062 L 118.742188 207.472656 C 118.742188 207.175781 118.769531 206.878906 118.828125 206.585938 C 118.886719 206.292969 118.976562 206.007812 119.089844 205.730469 C 119.203125 205.457031 119.34375 205.195312 119.511719 204.945312 C 119.679688 204.695312 119.867188 204.46875 120.078125 204.253906 C 120.289062 204.042969 120.519531 203.855469 120.769531 203.691406 C 121.019531 203.523438 121.28125 203.382812 121.558594 203.269531 C 121.835938 203.152344 122.121094 203.066406 122.414062 203.007812 C 122.707031 202.949219 123.003906 202.921875 123.300781 202.921875 L 144.800781 202.921875 C 145.097656 202.921875 145.394531 202.953125 145.6875 203.011719 C 145.980469 203.070312 146.265625 203.15625 146.542969 203.269531 C 146.820312 203.382812 147.082031 203.523438 147.332031 203.691406 C 147.578125 203.855469 147.808594 204.046875 148.019531 204.257812 C 148.230469 204.46875 148.421875 204.699219 148.585938 204.945312 C 148.753906 205.195312 148.894531 205.457031 149.007812 205.734375 C 149.121094 206.007812 149.210938 206.292969 149.269531 206.585938 C 149.328125 206.878906 149.355469 207.175781 149.355469 207.472656 L 149.355469 228.914062 C 149.355469 229.210938 149.324219 229.507812 149.265625 229.800781 C 149.207031 230.09375 149.121094 230.378906 149.007812 230.65625 C 148.890625 230.933594 148.75 231.195312 148.582031 231.445312 C 148.414062 231.691406 148.226562 231.921875 148.015625 232.132812 C 147.800781 232.34375 147.570312 232.535156 147.320312 232.699219 C 147.070312 232.867188 146.808594 233.003906 146.53125 233.121094 C 146.253906 233.234375 145.96875 233.320312 145.675781 233.378906 C 145.378906 233.433594 145.082031 233.464844 144.78125 233.460938 Z M 123.621094 228.582031 L 144.453125 228.582031 L 144.453125 207.800781 L 123.621094 207.800781 Z M 123.621094 228.582031 " fill-opacity="1" fill-rule="nonzero"/><path fill="#000000" d="M 253.144531 214.179688 L 163.414062 214.179688 C 163.089844 214.179688 162.78125 214.121094 162.480469 213.996094 C 162.179688 213.871094 161.917969 213.695312 161.6875 213.464844 C 161.460938 213.238281 161.28125 212.972656 161.160156 212.675781 C 161.035156 212.375 160.972656 212.066406 160.972656 211.742188 C 160.972656 211.417969 161.035156 211.105469 161.160156 210.808594 C 161.28125 210.507812 161.460938 210.246094 161.6875 210.015625 C 161.917969 209.789062 162.179688 209.609375 162.480469 209.488281 C 162.78125 209.363281 163.089844 209.300781 163.414062 209.300781 L 253.144531 209.300781 C 253.46875 209.300781 253.78125 209.363281 254.078125 209.488281 C 254.378906 209.609375 254.644531 209.789062 254.871094 210.015625 C 255.101562 210.246094 255.277344 210.507812 255.402344 210.808594 C 255.527344 211.105469 255.585938 211.417969 255.585938 211.742188 C 255.585938 212.066406 255.527344 212.375 255.402344 212.675781 C 255.277344 212.972656 255.101562 213.238281 254.871094 213.464844 C 254.644531 213.695312 254.378906 213.871094 254.078125 213.996094 C 253.78125 214.121094 253.46875 214.179688 253.144531 214.179688 Z M 253.144531 214.179688 " fill-opacity="1" fill-rule="nonzero"/><path fill="#000000" d="M 253.144531 227.082031 L 163.414062 227.082031 C 163.089844 227.082031 162.78125 227.019531 162.480469 226.898438 C 162.179688 226.773438 161.917969 226.597656 161.6875 226.367188 C 161.460938 226.140625 161.28125 225.875 161.160156 225.578125 C 161.035156 225.277344 160.972656 224.964844 160.972656 224.644531 C 160.972656 224.320312 161.035156 224.007812 161.160156 223.710938 C 161.28125 223.410156 161.460938 223.148438 161.6875 222.917969 C 161.917969 222.6875 162.179688 222.511719 162.480469 222.390625 C 162.78125 222.265625 163.089844 222.203125 163.414062 222.203125 L 253.144531 222.203125 C 253.46875 222.203125 253.78125 222.265625 254.078125 222.390625 C 254.378906 222.511719 254.644531 222.6875 254.871094 222.917969 C 255.101562 223.148438 255.277344 223.410156 255.402344 223.710938 C 255.527344 224.007812 255.585938 224.320312 255.585938 224.644531 C 255.585938 224.964844 255.527344 225.277344 255.402344 225.578125 C 255.277344 225.875 255.101562 226.140625 254.871094 226.367188 C 254.644531 226.597656 254.378906 226.773438 254.078125 226.898438 C 253.78125 227.019531 253.46875 227.082031 253.144531 227.082031 Z M 253.144531 227.082031 " fill-opacity="1" fill-rule="nonzero"/><path fill="#000000" d="M 132.007812 274.660156 C 131.332031 274.660156 130.757812 274.421875 130.28125 273.945312 L 125.925781 269.597656 C 125.691406 269.371094 125.507812 269.105469 125.378906 268.804688 C 125.25 268.507812 125.183594 268.191406 125.179688 267.863281 C 125.175781 267.539062 125.238281 267.222656 125.363281 266.917969 C 125.484375 266.617188 125.664062 266.351562 125.894531 266.117188 C 126.128906 265.886719 126.394531 265.710938 126.699219 265.585938 C 127 265.460938 127.316406 265.402344 127.644531 265.402344 C 127.972656 265.40625 128.285156 265.472656 128.585938 265.601562 C 128.886719 265.730469 129.152344 265.914062 129.378906 266.148438 L 132.007812 268.769531 L 138.691406 262.089844 C 138.925781 261.878906 139.1875 261.71875 139.480469 261.609375 C 139.773438 261.5 140.078125 261.449219 140.390625 261.453125 C 140.707031 261.460938 141.007812 261.527344 141.296875 261.648438 C 141.582031 261.773438 141.839844 261.945312 142.0625 262.164062 C 142.28125 262.386719 142.457031 262.640625 142.582031 262.929688 C 142.703125 263.214844 142.769531 263.515625 142.777344 263.828125 C 142.785156 264.140625 142.738281 264.445312 142.628906 264.738281 C 142.519531 265.035156 142.359375 265.296875 142.148438 265.527344 L 133.734375 273.945312 C 133.257812 274.421875 132.679688 274.660156 132.007812 274.660156 Z M 132.007812 274.660156 " fill-opacity="1" fill-rule="nonzero"/><path fill="#000000" d="M 144.78125 283.289062 L 123.300781 283.289062 C 123.003906 283.289062 122.707031 283.257812 122.414062 283.199219 C 122.121094 283.140625 121.835938 283.054688 121.558594 282.941406 C 121.28125 282.828125 121.019531 282.6875 120.769531 282.519531 C 120.519531 282.355469 120.289062 282.164062 120.078125 281.953125 C 119.867188 281.742188 119.679688 281.511719 119.511719 281.265625 C 119.34375 281.015625 119.203125 280.753906 119.089844 280.476562 C 118.976562 280.203125 118.886719 279.917969 118.828125 279.625 C 118.769531 279.332031 118.742188 279.035156 118.742188 278.734375 L 118.742188 257.300781 C 118.742188 257 118.769531 256.703125 118.828125 256.410156 C 118.886719 256.117188 118.976562 255.832031 119.089844 255.558594 C 119.203125 255.28125 119.34375 255.019531 119.511719 254.769531 C 119.679688 254.523438 119.867188 254.292969 120.078125 254.082031 C 120.289062 253.871094 120.519531 253.679688 120.769531 253.515625 C 121.019531 253.347656 121.28125 253.207031 121.558594 253.09375 C 121.835938 252.980469 122.121094 252.894531 122.414062 252.835938 C 122.707031 252.777344 123.003906 252.746094 123.300781 252.746094 L 144.800781 252.746094 C 145.097656 252.746094 145.394531 252.777344 145.6875 252.835938 C 145.980469 252.894531 146.265625 252.980469 146.542969 253.09375 C 146.820312 253.210938 147.082031 253.351562 147.332031 253.515625 C 147.578125 253.683594 147.808594 253.871094 148.019531 254.082031 C 148.230469 254.292969 148.421875 254.523438 148.585938 254.773438 C 148.753906 255.019531 148.894531 255.28125 149.007812 255.558594 C 149.121094 255.835938 149.210938 256.117188 149.269531 256.410156 C 149.328125 256.703125 149.355469 257 149.355469 257.300781 L 149.355469 278.734375 C 149.355469 279.035156 149.328125 279.332031 149.269531 279.625 C 149.207031 279.917969 149.121094 280.203125 149.007812 280.480469 C 148.890625 280.757812 148.75 281.019531 148.582031 281.269531 C 148.417969 281.515625 148.226562 281.746094 148.015625 281.957031 C 147.800781 282.167969 147.570312 282.359375 147.320312 282.523438 C 147.070312 282.691406 146.808594 282.832031 146.53125 282.945312 C 146.253906 283.058594 145.96875 283.144531 145.675781 283.203125 C 145.378906 283.261719 145.082031 283.289062 144.78125 283.289062 Z M 123.621094 278.410156 L 144.453125 278.410156 L 144.453125 257.625 L 123.621094 257.625 Z M 123.621094 278.410156 " fill-opacity="1" fill-rule="nonzero"/><path fill="#000000" d="M 225.15625 264.007812 L 163.414062 264.007812 C 163.089844 264.007812 162.78125 263.945312 162.480469 263.820312 C 162.179688 263.695312 161.917969 263.519531 161.6875 263.292969 C 161.460938 263.0625 161.28125 262.800781 161.160156 262.5 C 161.035156 262.203125 160.972656 261.890625 160.972656 261.566406 C 160.972656 261.242188 161.035156 260.933594 161.160156 260.632812 C 161.28125 260.335938 161.460938 260.070312 161.6875 259.839844 C 161.917969 259.613281 162.179688 259.4375 162.480469 259.3125 C 162.78125 259.1875 163.089844 259.125 163.414062 259.125 L 225.15625 259.125 C 225.480469 259.125 225.792969 259.1875 226.089844 259.3125 C 226.390625 259.4375 226.65625 259.613281 226.882812 259.839844 C 227.113281 260.070312 227.289062 260.335938 227.414062 260.632812 C 227.535156 260.933594 227.597656 261.242188 227.597656 261.566406 C 227.597656 261.890625 227.535156 262.203125 227.414062 262.5 C 227.289062 262.800781 227.113281 263.0625 226.882812 263.292969 C 226.65625 263.519531 226.390625 263.695312 226.089844 263.820312 C 225.792969 263.945312 225.480469 264.007812 225.15625 264.007812 Z M 225.15625 264.007812 " fill-opacity="1" fill-rule="nonzero"/><path fill="#000000" d="M 219.027344 276.90625 L 163.414062 276.90625 C 163.089844 276.90625 162.78125 276.84375 162.480469 276.71875 C 162.179688 276.597656 161.917969 276.417969 161.6875 276.191406 C 161.460938 275.960938 161.28125 275.699219 161.160156 275.398438 C 161.035156 275.101562 160.972656 274.789062 160.972656 274.464844 C 160.972656 274.140625 161.035156 273.832031 161.160156 273.53125 C 161.28125 273.234375 161.460938 272.96875 161.6875 272.742188 C 161.917969 272.511719 162.179688 272.335938 162.480469 272.210938 C 162.78125 272.089844 163.089844 272.027344 163.414062 272.027344 L 219.027344 272.027344 C 219.351562 272.027344 219.664062 272.089844 219.964844 272.210938 C 220.261719 272.335938 220.527344 272.511719 220.757812 272.742188 C 220.984375 272.96875 221.164062 273.234375 221.285156 273.53125 C 221.410156 273.832031 221.472656 274.140625 221.472656 274.464844 C 221.472656 274.789062 221.410156 275.101562 221.285156 275.398438 C 221.164062 275.699219 220.984375 275.960938 220.757812 276.191406 C 220.527344 276.417969 220.261719 276.597656 219.964844 276.71875 C 219.664062 276.84375 219.351562 276.90625 219.027344 276.90625 Z M 219.027344 276.90625 " fill-opacity="1" fill-rule="nonzero"/><path fill="#000000" d="M 254.332031 271.097656 C 253.65625 271.097656 253.082031 270.859375 252.601562 270.382812 L 238.164062 255.941406 C 237.933594 255.710938 237.757812 255.449219 237.632812 255.148438 C 237.511719 254.851562 237.449219 254.539062 237.449219 254.21875 C 237.449219 253.894531 237.511719 253.582031 237.632812 253.285156 C 237.757812 252.984375 237.933594 252.722656 238.164062 252.492188 L 315.207031 175.546875 C 316.394531 174.355469 317.761719 173.441406 319.3125 172.796875 C 320.867188 172.15625 322.484375 171.835938 324.164062 171.839844 L 324.183594 171.839844 C 325.433594 171.84375 326.65625 172.027344 327.851562 172.390625 C 329.046875 172.757812 330.164062 173.285156 331.203125 173.980469 C 332.238281 174.675781 333.15625 175.507812 333.945312 176.472656 C 334.738281 177.441406 335.371094 178.5 335.851562 179.652344 C 336.328125 180.808594 336.625 182.003906 336.746094 183.25 C 336.871094 184.492188 336.808594 185.722656 336.5625 186.949219 C 336.320312 188.171875 335.902344 189.335938 335.3125 190.4375 C 334.722656 191.535156 333.988281 192.527344 333.101562 193.410156 L 256.058594 270.382812 C 255.582031 270.859375 255.007812 271.097656 254.332031 271.097656 Z M 243.339844 254.21875 L 254.332031 265.210938 L 329.648438 189.96875 C 330.191406 189.425781 330.644531 188.816406 331.003906 188.144531 C 331.367188 187.46875 331.621094 186.753906 331.773438 186.003906 C 331.921875 185.25 331.960938 184.492188 331.886719 183.730469 C 331.8125 182.96875 331.628906 182.234375 331.335938 181.523438 C 331.042969 180.816406 330.652344 180.164062 330.167969 179.574219 C 329.683594 178.980469 329.121094 178.46875 328.484375 178.042969 C 327.847656 177.617188 327.160156 177.289062 326.425781 177.066406 C 325.695312 176.84375 324.941406 176.730469 324.175781 176.726562 C 323.144531 176.722656 322.152344 176.917969 321.199219 177.3125 C 320.242188 177.707031 319.402344 178.265625 318.675781 178.996094 Z M 243.339844 254.21875 " fill-opacity="1" fill-rule="nonzero"/><path fill="#000000" d="M 326.554688 198.964844 C 325.878906 198.96875 325.304688 198.730469 324.828125 198.25 L 310.378906 183.824219 C 310.148438 183.59375 309.972656 183.332031 309.847656 183.03125 C 309.726562 182.734375 309.664062 182.421875 309.664062 182.097656 C 309.664062 181.773438 309.726562 181.464844 309.847656 181.164062 C 309.972656 180.867188 310.148438 180.601562 310.378906 180.375 L 315.214844 175.542969 C 315.804688 174.957031 316.441406 174.429688 317.132812 173.96875 C 317.824219 173.507812 318.554688 173.117188 319.320312 172.800781 C 320.089844 172.484375 320.882812 172.242188 321.695312 172.082031 C 322.511719 171.917969 323.335938 171.839844 324.167969 171.839844 C 324.996094 171.839844 325.820312 171.917969 326.636719 172.082031 C 327.453125 172.242188 328.242188 172.484375 329.011719 172.800781 C 329.777344 173.117188 330.507812 173.507812 331.199219 173.96875 C 331.890625 174.429688 332.53125 174.953125 333.117188 175.542969 C 333.707031 176.128906 334.230469 176.765625 334.691406 177.457031 C 335.15625 178.148438 335.542969 178.875 335.863281 179.640625 C 336.179688 180.410156 336.421875 181.199219 336.582031 182.015625 C 336.746094 182.828125 336.828125 183.652344 336.828125 184.480469 C 336.828125 185.3125 336.746094 186.132812 336.582031 186.949219 C 336.421875 187.761719 336.179688 188.550781 335.863281 189.320312 C 335.546875 190.085938 335.15625 190.816406 334.695312 191.503906 C 334.230469 192.195312 333.707031 192.832031 333.121094 193.421875 L 328.28125 198.25 C 327.804688 198.730469 327.230469 198.96875 326.554688 198.964844 Z M 315.5625 182.089844 L 326.554688 193.066406 L 329.664062 189.960938 C 330.023438 189.601562 330.34375 189.207031 330.625 188.785156 C 330.90625 188.359375 331.144531 187.914062 331.339844 187.441406 C 331.53125 186.972656 331.675781 186.488281 331.777344 185.988281 C 331.875 185.488281 331.921875 184.988281 331.921875 184.476562 C 331.921875 183.96875 331.871094 183.464844 331.769531 182.96875 C 331.671875 182.46875 331.523438 181.984375 331.328125 181.515625 C 331.132812 181.046875 330.890625 180.597656 330.609375 180.175781 C 330.328125 179.753906 330.003906 179.363281 329.644531 179.003906 C 329.285156 178.644531 328.894531 178.320312 328.46875 178.039062 C 328.046875 177.757812 327.601562 177.519531 327.128906 177.324219 C 326.660156 177.128906 326.175781 176.980469 325.675781 176.878906 C 325.175781 176.78125 324.671875 176.730469 324.164062 176.730469 C 323.652344 176.726562 323.148438 176.777344 322.648438 176.875 C 322.148438 176.972656 321.664062 177.117188 321.195312 177.3125 C 320.722656 177.503906 320.273438 177.742188 319.851562 178.023438 C 319.425781 178.304688 319.035156 178.625 318.671875 178.980469 Z M 315.5625 182.089844 " fill-opacity="1" fill-rule="nonzero"/><path fill="#000000" d="M 233.527344 277.441406 C 233.335938 277.441406 233.148438 277.417969 232.964844 277.375 C 232.777344 277.328125 232.597656 277.265625 232.429688 277.179688 C 232.257812 277.09375 232.101562 276.988281 231.953125 276.867188 C 231.808594 276.742188 231.679688 276.605469 231.566406 276.453125 C 231.453125 276.296875 231.359375 276.132812 231.28125 275.957031 C 231.207031 275.78125 231.152344 275.601562 231.121094 275.414062 C 231.089844 275.226562 231.078125 275.035156 231.089844 274.847656 C 231.101562 274.65625 231.136719 274.46875 231.191406 274.289062 L 237.542969 253.507812 C 237.605469 253.308594 237.691406 253.117188 237.804688 252.9375 C 237.914062 252.757812 238.046875 252.597656 238.199219 252.453125 C 238.351562 252.308594 238.519531 252.183594 238.707031 252.082031 C 238.890625 251.980469 239.085938 251.90625 239.289062 251.855469 C 239.492188 251.804688 239.699219 251.78125 239.910156 251.78125 C 240.121094 251.785156 240.328125 251.8125 240.53125 251.871094 C 240.734375 251.925781 240.929688 252.007812 241.109375 252.113281 C 241.292969 252.21875 241.457031 252.347656 241.605469 252.496094 L 256.054688 266.925781 C 256.203125 267.074219 256.332031 267.242188 256.4375 267.421875 C 256.542969 267.605469 256.625 267.796875 256.679688 268 C 256.738281 268.203125 256.765625 268.410156 256.769531 268.621094 C 256.773438 268.832031 256.746094 269.039062 256.695312 269.242188 C 256.644531 269.445312 256.570312 269.640625 256.46875 269.824219 C 256.367188 270.007812 256.242188 270.179688 256.097656 270.332031 C 255.953125 270.484375 255.789062 270.613281 255.613281 270.726562 C 255.433594 270.835938 255.242188 270.921875 255.039062 270.984375 L 234.238281 277.328125 C 234.003906 277.398438 233.769531 277.4375 233.527344 277.441406 Z M 241.03125 258.816406 L 237.207031 271.324219 L 249.730469 267.503906 Z M 241.03125 258.816406 " fill-opacity="1" fill-rule="nonzero"/></svg>